<mxfile host="Electron" modified="2024-08-15T16:06:47.044Z" agent="Mozilla/5.0 (Windows NT 10.0; Win64; x64) AppleWebKit/537.36 (KHTML, like Gecko) draw.io/21.6.5 Chrome/114.0.5735.243 Electron/25.3.1 Safari/537.36" etag="ULH8o1Ij2DZAdkjccpyX" version="21.6.5" type="device">
  <diagram name="第 1 页" id="S_91M-9XUKZkzd6GOa5R">
    <mxGraphModel dx="1221" dy="2000" grid="1" gridSize="10" guides="1" tooltips="1" connect="1" arrows="1" fold="1" page="1" pageScale="1" pageWidth="827" pageHeight="1169" math="0" shadow="0">
      <root>
        <mxCell id="0" />
        <mxCell id="1" parent="0" />
        <mxCell id="C-2PJ58ULMP3kAUmGiD7-5" value="" style="edgeStyle=orthogonalEdgeStyle;rounded=0;orthogonalLoop=1;jettySize=auto;html=1;" edge="1" parent="1" source="C-2PJ58ULMP3kAUmGiD7-1" target="C-2PJ58ULMP3kAUmGiD7-3">
          <mxGeometry relative="1" as="geometry" />
        </mxCell>
        <mxCell id="C-2PJ58ULMP3kAUmGiD7-6" value="序列化" style="edgeLabel;html=1;align=center;verticalAlign=middle;resizable=0;points=[];" vertex="1" connectable="0" parent="C-2PJ58ULMP3kAUmGiD7-5">
          <mxGeometry x="-0.1238" y="3" relative="1" as="geometry">
            <mxPoint as="offset" />
          </mxGeometry>
        </mxCell>
        <mxCell id="C-2PJ58ULMP3kAUmGiD7-1" value="data" style="rounded=1;whiteSpace=wrap;html=1;" vertex="1" parent="1">
          <mxGeometry x="500" y="170" width="50" height="40" as="geometry" />
        </mxCell>
        <mxCell id="C-2PJ58ULMP3kAUmGiD7-2" value="" style="shape=image;verticalLabelPosition=bottom;labelBackgroundColor=default;verticalAlign=top;aspect=fixed;imageAspect=0;image=data:image/png,iVBORw0KGgoAAAANSUhEUgAAAMgAAADICAYAAACtWK6eAAAAAXNSR0IArs4c6QAAIABJREFUeF7tXXmAHFXR/1XPJJsEkt0eDiEckuz0EJBLEA9AAcULTw5RBLkh2Z4AIoh4YfxURMQISaaXcAiCfArI4a0gAoIKKCiHAtOzCXKEe3o2d7IzXd++STbf7mam+/XrI7Ob7X8iTlW9qur+bfd7r96vCGPXWAbGMtA0AzSWm7EMjGWgeQbGADL2dIxlwCMDYwCJ8fGY2P3MDhN43HSGOx3gN2uMDgBTGJgs/gWJf3nd/2ZMJqKthDvM/AYIywAsBWjdv4xlTFiqMZa5YAekPUfQFq2mvkWrunZ9McYwNmvTYwAJefsnzX9uapu2Zj8CsgwIIEwn8S/RjJCmg6ivBvOzTOgB02ICFjFQWuO2PbLyzJ2XBDE0Jjs0A2MACfhErAfEoUw4hBiHECEb0ETS4jYz7gXxvWtqE+4dA0yw9I8BxCdfdUCkVh8CJgGGQwAYwVLcctJjgAlwS8YA0ihZ1zw9WV+TPpbAJwN4Z4B8jjhRZvyNCD8qt9VuwqkzxHxn7BqUgTGADCSDmdqv6DlUYz6ZGEeBMHEze1JWMnArE35UmZW9D0S8mcXfMNzNHiAdCxa9WaPayUx8IoF2GXso6qtoi5noOo3p2nI++/zmnJPNFiDt3cWjNJfyRDh0c34AfGNnvrumobu3K3err+woFNi8ADKH0x3b2p/TGOcnvAw78h8d5qdd0i6uvNp5I+ZQdeQHJBfB5gGQuc9P7GhbdQYRnUvATnKpGZNqlAEGnmPQpZXVbVfjCzutGu1ZGtUA6fjh4g60Vc8i8JkE2nq038wk42PGawBdjjQtcGZ29iY5dpJjjUqATFr47Pbjq33nauCZINoyyYRufmPxMmate+14be6K06e/MtriH10AuXbxhMyq6pcBnA9gwmi7WS0dD2OVS7i4MjF9CU6etrqlfQ3g3KgBSMayP8XApQTsHCD+MdGIM8DgZ5lT51bynbdFbHqTmBvxAJlsLdo1jdo1BBy4STI4NmjDDDBwXxWpmcvM6c+M5BSNWIDoC3vaqebOAfD5Vr0BDDwPxgsQ/xL/l5heAuEFuHiBx2kvouYeS8DFXv4z+HykUjdRlXcE844g7MDE24tNTWaI/96xxVfmLiu31S4cqWUsIxIgenfxo2Bc27orU3yru2bcaZVzplW8Hv5MoXQeiL/vCXDGF8p544deMu3Wf3WN115LhE+04h8LBr8OwslOV+7Xreifl08jDiCZgj0XhHNaMtHMKwA6u5w3rpHxLyqADIylW3aegAUyY28KGReYWzGNczfF2KpjjhiAiJop0qq/INDeqsHGqceMf1dZO3LZ7M6i7DhyAKHzyvnsD6RtXmHvzi5+SUCnrE6Scgw8wm7qqMrs6f9NclzVsUYEQDIL7GNA/CMQbaEaaJx6zPxTJ5/7bNAxpAACnFs2jbmBbC9cMilTXX4DiI4MpJeUMPMKF6kTRsJKV2sDZJ7dpqd5HoHOSOreBR2HGdc7eePEoHpCXgogHOwNssGPOazp29o3EugzKr4locMMy6nhCzjLWJPEeCpjtCxA6su3XLuFCHuqBKamw88AtKusLoOvdMzcTFn54XJyAPGfpHuNr1v29QR8Tt7HYDmQt9tYksGP1Vg7emk+WwprKw79lgRIplA6AOT+HiDB+BHrxUANwE/7qO174901vxPLplIDMn5UzhunSsk2EZIDiOIbZNCYesH+CRGOk/FVLE27Lj6paTiHgONldELLMJaC8MGyaTwY2lbEBloOIO1XFN+v1ehXRGiLONYh5urAYNzouuPm9J65y+JMoXgbiI6QGjMCcIhxkgLIurHsW0A4Wio+4NqyaZwypVDKpogvBPBZAlKSumpijFU1jT7a25X9k5qBeLRaCiAd3aUjyHVvJqJ0POHWT8tViXBjrTb+mwIYYpyObvsUjSG1NAvwH8tm7v1R+JckQIS/esH+KxHeJeM7Mz7u5I1fCdk6UMBfB+G4OIHC4D6X6bO9eePnMj4mIdMyAOkolE4g4usIiMWnOjCAn3A69Q1nZudzA8kVNz9N/BiASb4JZ16CGu1WPstY6isrIZA0QLbsLm073uXHQXiTn3sMOGs5vfuK/LSXh+bK/RqDjo8LKCz+hoFPrZi5a/18TOL3WB7GoI7rlv1lAi4Kqictz/gHGCeVZxv/Hq6TsYoPAfR2GVuultqnMmu6AFMklxxAwk3Shzuqd5cOJOYHZAJg4A7HNDb67NS7S3uAWUz+3ypjR0lGooJAyW5ApU0OEL1gzyfC7IB+y4kzVgF0Yfm1zrmYQ+5GD4tVOoPAC2WMMcF0uoxuGVlZGTmAhJ+kbxx38YsEukTKT6YPl/PZ328ku24Z+Vxi+mZ8DDD87bKZ+7qUnzEJbVKA6AW7QAQzjtgYuJfd1EnNdmzFaUMa31ca4MP19oFvLZs52QmudDhSAFHZKJTwQC8Uf0NEh/uJilUtZ/WEXZsdr223itM14DoCvdvPlsrvDJ7vmLmzVHSj0NlkAMkU7DkgfCOKIIbYYF7OoC85ecPysq0XilcQke8eBoMXOakt98TMqSuj9nVTAkT8gdDG9/0bRFP94mKmS5x89kve+bRNAn8vlhOcjG+W84ao3E782iQA6bBKJ2rg6yKPlnHnGqRPHDyxbDTG+m/ox/0WBMSEkZgOKuezf43c14SXeRvmYUHP4aS5v/GLTSyJV11td786sy0Ki7drQ/XHIHzAz2bQ313CqZUu40dB9cLKJw4QwUeVYoplGY+Zf7smPf60lTN3eckrMZlC8WEQ7e+bPOZ55XzubF85RYFN+QYZcFl2E5GZH3DyOc/PqMw8e0dO40oCPqyYEk81l7Wjkq7fShQgHd32IRrjnjiSt8GmzyeWLEAFvY0zMb1rnOerWwEgU65+PpNas6ooMxdj0OGOmf1do/vXUSierRGJlUj/5fIQD4ALHFIxjftCmAikmhhAOgrFfTTg/li+URuELP7iVdPjTl82c9rTg3/OWLYoR/dlaHeZTqzks9cHymZAYSmAJLDc2dFdPEtjutzXfcY/ynljyJt38sLFM9LV6o9kNyB9x/ATEH8AKX2gY05/3E80it8TAUj7/Genadrav8v8lYoiqAEbDF5LrH2vXOPviIpRsRmpEf/Yfwx+ptxl7BY3gbMcQKJf5t0o/jmc1re1bRluYpfoyEpX9nbc/OR4/bXxF4JwPoHG+ec0QgnGKwDtnwRvcOwAEbu349j9G4GmR5iiQKYY6HGhzdLYvYwIb/FTdoFPVEzjl35yYX+XAYgLnFMxjcvCjuWnXz9zo+EmPzlxMIxBZ2pU3z/yfRP72VP9nRmlvhoOWH6W8ZqqDRm9eAHCTJlu+0HZnWoZh2OXafAZEdeYMgCB6nkQBaczBfvvILxNQXWTqDDzn5187uA4B48VIJlu+xtgRLZ+zUxnMrkrNKbLQJgSR2KYtXc7+U6pUoyw47caQPRCz0FE7v1h42qkL2q7QGQy83Ya4ElCEWR8Br7qmEZsZUqxAWRKoWf/FNwHiaAFCbiZLIO7HDN3hfhdX9izM6q1G4joPVHY3mCDcWc5b3wwUpsexloNIPXcWvY9hHqruegu5rvXjE8fN0BNGiW5hChCrWnpA5d2TX84Oof/31IsAKlzVlXdJ6UPH/lExsxfcvK5obVDzNRh2WdpRIJXKhKaUSba0+nKPhlHohvZbEWAdBRKh2rE0ZzJYF7BGn2xUQ2bXrAv6D/z890ocl0vh+H23ZHfdnkU9gbbiAcgln07AZ+MwlkGX+qYuS82syWO5o7j2k+i+HZmxj1MuCyJCbqIRw4g0Vbzet2T+nkc5vMIOCCCe/dgLYXje2caPc1sdVj2DzTgCxGMBQb/zDFzx0ZhK1aA6IXiTCKqfwqFvgKc3Ku/thkXRTI3Yaxi4I8Mvk2r0W1Rnf8Yno9NDZDMPHuKm+IjCXQkEcQhsNBv4vpcA3SBY2avlLn/Gat4HUBKpBfD7bugkypmVmIZX8azdTKRvkHWHz56IppE86+dV41PNCpTbxbe+l3hiwA6PcK5z1oAdzJrt2g1viNKsMgBJNp9EPH5yzX+JMH9FID3E2i8/OPSXHL9gTSL06kLA/ULqZfNl8QXx8dD+yHohLRxe1S6pj0b2tZ6A5ECRC8U/0lE+4R1TpSqO6ah3DtQ7NoTMJ+IDgrrSwP9B5lxL0h7wOHJ94X57pUDSMhPLNHSeq12MFzt3UQsFjWib2vNfNda4Ozl+dxTSvm+dvEEfWXfXZHcr4iX6SMDiF6wTSIUlBI0SKn/LPSjDtoPDvPgDZjTLfsJAvYI65OnvjitCNzPwD19Gj20vCv7qux4cQBkYvczO0xwtX2J8F4wDopibuYVDwN/dUwjNLO++NzjNN9PoL1k89dMjplnOfmc1EE4v7EiAcjkBS9slaZVJSJ0+A3omWzmN/o0bfcgD1kze+JBmciaYFZP+OKXGHiUQI+4Lh7ViB5tVhIhB5Dmn1hiuZtrvK8Gdz9m7EugfUHYLsmARSk8r0lv7UfULePTpPnPTW3TVj8etiSJGRWktV0Cfeo1cTASgGQK9jUgnCKTBC8Z1+WDK7Nzfw5rR+hHuYwYhT8Av8jAG8R4rb9U4w0ArxN4VxC9z/sNxXcxyAawNYG3YsI2xNha5qBTNH77W2FgtmMaob8exEjtVs9hKbh3+Y/qLeECV1dM4/SwdkIDpN0q7ZcCi8+MUJcL/nrFzH07lJFByv0dpwRBw+5R2Ruz45EB5ofK+Vxkc5uMZX8TgODjCnXVNG3/3lmdoZ7N0ACJaGL+h35WvQ+FysYg5Y4rFu2tubV/+dkTB3AIrvgkEfMn3yJGP3uj6XdmPEGEeS7TWpkK6FoKWa89j6C5yRSKf/R9u/oYFUzyjmmEqi0LBZBISgYYL/TxxH2Wzd5RfHZEcumF0veIWDTybHqJNsb959a3HRCY0r3o7Wm3ehwDx4X9Bo4kiE1gZN0eBn5Wc/nHS2fnHhpwIVMoLvM7x+MC36iYxv9E5baY147TVj4B0PZhbA4uUVKxowyQ9QEsDsOfK9bOXaZ39M42HlVxvpmObhUX+51tqDOL5438RjbmsNaxTc/BBPfTIBzVul2soslYvfsTcJuL1C29W0+/B8eQ4CoecumWYImHZ3sHZv6Xk89FypMlOJoZfH+YPa2wE3ZlgGQKxctBFJKOJXreoy0Lxd3GE/3H7/GRWhC4mVPtZfu9qRp9momPIFDGz+5I+L0OCqbb3RTf0psx/tQIFIPj0Av2x4jgez5mdWrcVD8+gKD50S37YgI8GVX8bLqMH1Tyxnl+co1+VwJI/e1Bq54PQxjGzIudbdbOwDF7iJ3qyC7dsr/k1xgTjFfKeSPYcujNnOp4o7QXuXQgiA8ixoFRFWNGFnwTQ/VmouC/gLW/MNwHKq8ZjwepUMBCHpep2W/4fS2I4whOPhttCzixibiqWgzVqFT0cF+bnqqyFK0EEN2yLyLgy2FubI3ofXEweeuW/Re/YjsGCo5phGZzXN8W7kBiehsIezNjz/7N0m3C5CWsrphbEeEJMB5j4n+wm/5LFO3OdMu+wbcdAvNd5XwucsqfTKH0IRA3JIsIkK//KZtGYB62wABZTzj2vN+kzctxZtzo5I3Ie0/UyZmZX/FLWk3jD/TOyoVea280jqgHo9Vr30qau6fG2JOJjfq+BUiPbBOP8TLADhNeJybbJTzBrvYETxj/z6Wn7VT2i1/l9/aCfXSKcIufbpnbJ0dRBdFgHvQzAj7tN36z38VcxEH7TkF9Cw4Qq/g1DfQtZUeB3j6iXBS75RslsVA8loj+19s3XlY2c7GcRpTKyfUvb5GpLNM5ncqAazP9qFeZsQCUuoqqtXK5Y7KDE7ZbITVO1ELXPD05sybly2rvgo6omNk7oh5+HSldnx3qDzNwgWMa3wviWzCA1IvKqi+FKilhOqOcz14VxElZ2Q7LvkoDTvN5e93s5A3lv0SyvsjIhS01kRkjSpmMZQsSa78Tl5eVTSOWNt1h6/3qS/uT0jsH4ToLBJBMoXQuiC9VTjrz0+V8bjdlfR9FGc6rfjaM4528cWNcPgSxO9IAIvOAxrHcuyGnzKRbpSIRskHyPFjWJT670pWbJ6svD5CFPE6v2UvC7AvUiI/u7crdKutcELktrlr0pra+2oZmL02/RVNaRxRFbEF8ayY70gAimNxToKYnBEWczHAdtLcH/daXzafeXfoMMf9UVn4jOeYl5W2Mnf2Wtgf0pAGid9tdxPBkTPd0Oua3hy4x/2Dw446Z21s5uRErjjSAiPAzBfslv8WGwe3bIk5Z3VwEdXanl03jahnfpAGSKRSfAtEMGaONZOKavA2MJdXOgOnycj77edUYotYbiQDRC/aPiXCCVy5cYG7FNM6NOl8D9voBIk5D3qxqX7Sedsyc1ME+KYDo1qK9CDXl1mNBHFINWuZwVFKMibIxjESAdBSKJ2lEfv0DHyybhlSzUNlcDZcL/RbR8JbyLMO34kISIMVLCNSUWcQvyLhfuVi3urbCq2ZH9PpwUltsGUcjHL/4R8scRMQhM9cT3WqdV41JmENV1dz46XUUeo7UyFWezzLjYidv+G52SwEkYxVfAGgHP6cb/s4olvPGrkq6kkoybRUY+KdjGvtKmkxETO4NEvJMegyR6Jb9XwJ29jJdc7Ff1EWow8fTLbtEQKdSiIwXynljJz9dX4C0d5fem2K+289Q098T4JaVqb9i5oVOPjdLOY4YFOUAEi2rSRRhZKzizwE6ystWHE1PNwJISPI5mV4jvgDJWLZoe3WySmLrtJBtE98UV/nDhklboXgriI708nFTtfDy8mmkAkTmDxKYryvnc0rPjeyzVudC0Fa+pNp+gRlXOXnjDK/xvAEyz27LpPgNEG0h6/RgOQZuckzjMyq6QXRkPgG5pu3lnNkpOLta5hqpAJH8qvhP2TRiP6Up8zZrfsP7y45eNTJecyVPgMj2jGjmQM3VDuud3an+eSbxKNd5gGtuxVOUsapsZreIuyGOhLtDREYqQMSiSGZVdZVfvOVUdjxmUp+fXJjf2wv2B1KEP6ja2NAQqIkBT4Dolv0LVcY70eCkv6Qj9gYrMmTLDNznmEa0jOWqd2SQnhxAWm+SLkLIWMWnAfJcfElioi580QvFRUQ0TemWMH5ezhtiX6Xh1Rwg61psrSCitMrAzPiykzcE83qs1/rmkZ4dmKI6/xF1IHIAab1Jeh0gBfsWEI72yonLfHIln4u+3fewQXXL/goB31G8P6vLW2e3bFZ60hQgkt+ZTX2K4/hlo8EyBftqEE71Sk4SKyoqN2dkA6T0PyD+uidAYt5RHxg7LEkgI/Uex5zesHFQU4DoheK3ieirKjceQCITtHV/yYoPgugdPjcq0dbBsjkbyQCRKhpMsCGRzCdf0/tCmFPuMgQX10aXB0Dsv6q29vXr6SH7AMnIZSxbHCDy7M1dw/hMr/lmQWnTUteIBohU+RG/VDZzU5NIepheI169DhsDZOGSSXp1ea/q/MMlHFrpMu6NOzGZefaOSAtCgubXcP6ruH0KYn8kA6TeBvr1tpUEpLxiLk9MTwxyQClI/gbLti/oeV9Kc/+ooi/265wabSlahQ/XbwgQ3Sp9mMC/VRkMjKXlvNGupBtQSabpZKuuYK37PCydB+Lv+4R9btk05gZMTSLiesG2/Q4vJdnWTobgrlliatDe32t2bgSwJgApfp9ASjxC8Fk2i/LOdXTbn9MY1/vYvLZsGqGJtaP0e8CWFEASKNVRjS1jFe8C6DDPNzjxx5yu3K9Vxwiip4do/cfAdx3T+IrcG6RgP9JPFKZU2JfU0p4IpMOyL9SAhpOrgUBd5gsr+ZwyyUSQGxRUdqQDRI4DIAaurCaJzhRKp4NYqvXbRiaaEHBv9AYRO9OouQ4ptmergTt7zdyioA+LirxMnVgrnUEfHuNIB4heKH2ViD0Z+cOwGgZ9JiYvXDxjXK2q1OWqflR48uQpw1ljNgKIzM50U8dFSUe+/xxAQpdUT2+mA8v57F8TcinQMCMfIPZx/XOQn3gHzbeWzZznhmKgpPkIy6xqNjPRaHFp4zdIiC61YXsLBk2UbhV7CDTdS28Np7dfkZ/mS+YQdOwo5KUAArTsJF2QS4P4L565iLhnoF/edct+gAC1lnANKKk2AkimYM8FQY3XiPHDct6IpO+1XyLE75mCvdKPH7hsGr4l/TJjxSEjBRBuzVqsdfkv7QTi57xyI3iBHdPwPFwVZW51qziPQGeq2Gy0f9foDfIbIjpcZQCXcEKly7hBRTewjgzTn+SpscBjR6QgB5DWrMWqp6BOal3yJB9n8FrHzLVFlDJfM5mCfWo/qbgUY8lwY8z4lZM3hrSj3hggIY4xJrnmvb4nu+jd1/Sqd8zNG/v5ZnUTCYx4gKwr9fFtrsMJcpF1dNtv1Rhq/WYaHA8fCpB1Td3X+u2ONnqe6gf1u4y2pM5c6N2lA4n5AZ/X++8c01B6GyaBmdEAEJl5YFXTcktndXr+MYss33M4rW9rr1Q5ZSg69jqvZscPbg0xBCCyzWcaB8MPl82cZ9FgZEkQeyDdpSM05tu8J4jxH/sME9NoAIhMsSgTHeR0Zb0n82ESOUw3TN/M4WAeApAOq/RJDXy7iq9xtTRo5otuFWcRqNv7E4sucfLZUN2JVHIhqzMaAKJbxV8R6KNeMfud2pPNl6xcxrIFqVzTQ1Cez8ywnf8hANELxfOJKBA9/MBgSVbwijF1y/4yARd5v0Hoi+V8Vp1sW/aOKMrJAaR1V7FE2DKbtUkTZmQKpctAfLbKbXGBcyqmseEA3hCAhOo7mHDNkMx5lSgb3Ksk209HDiAtvIq1bqlX5mFMdC9H6o9nk5szfOd/KEBCUfwk21YgY9k/BODJs5tkXZgfGBr9PioAYtmiFu5C7zc5vlnOG3NUcqSiI0mP2tA0g690zNzMgR+HAcSfEKyZw3H1HGw6BynYVxLhdM8Euvh0ebahTHKscnOC6IwKgMj0jEl8A1m9pyGDf+aYuWMbA6Rg/wEEtSaMkmTAQR4gL1mp3t0JllqrxDUqAGLZoqOXd8cwxjXlvOHZ+Uslf810Oq5YtLfm1v6lYpOZf+vkcx9p8gax/wbgnSqGkz7WqhfsO4jwCS9fk36rBc3bKAGITCuCW8qmcUzQ/KjKyxBsN7PN4PsdM/eehgDRC/aTRFBjw2PvcxmqwTYNhHC8L3ExQ9Cmeh7JjdqvYPb4ABC93+f7/c7+voDiD1dLXkwQxW6f9XHOBsOnuWqE4RHE1MF7XtRkuOEt5IYu81r2c6EatkcY45ipsQxsigwweJFj5jYwxg8HSIWARM6Tb4rgx8Ycy4BfBhj8umPmtmn2iVXzakLjZ3zs97EMjPQM9DOCrulnBJ2wMUBEg/vly5aP9ADH/B/LQNgMlLuy2kDR7YZPrMw8ewrS6A1rfEx/LAMjPQPlttoUnDpjmYjj/+cgkpT2Iz34Mf/HMuCXgfLWa9pwzB71g2DDS03YT3ns97EMjPYMDD6mPbyat0+VbnS0J20svs0mA6vLpjGx4SpWplBcrtpuDUlvFAKCcibrc9uuBcOTVGDT3vbNY6NQNFMi4MZEc034hsp4DPQ6ptHRBCD2yyC8ScVwdfyEreJu1jnYr0yheBuIjvDytabxB3pn5e5SiScJndFQatJesI9OEW7xzBfz7eV8zrPJapT5nrzwma3H1bTXlGwOI/oYPgf5N4DdlQy72KM82xD6iVy6ZV9PwOe8Bkv6JFvQwEcDQDqs4skaSJT0NL0YuMExjROC5kdVXp/fsyel3MdV9H1KTYp/JtC7VQw3Y8dWsSWjo1u2RUCXN0ASpCGScXqYzOgASOlMDTzPEyAMy8kbeYUUKalkuu0PgvF7JWXwH8tmbkN93PAThb6fLc0GTZQTq37ktngJgb7oeWMIptNleJ5bV0tiNFqjASAy/QGZk+UGCHlgqvl5EBm27maPBjN/ycnnLonm0fG3IsPszuDzHTPn13/Df7CYJEYFQAr2d4lwgeebHPz1ipnzJLmOMsUyoG3+HGOBkzc2MDMOe4PYc6A4++9n4rmsbBpqlKUK2ckU7HNA8G4sw/Stcj6rVPas4FJgFSmAtDA3rwhYt+wFBHh+PrnMn6/kc5cHTpCigl6w5xNhtoo6Axc4prGBuGQo7U+heJJGdK2a4aFHFVVsBNHp6LZP0RjXeH5iAd2OaZhB7CYpKwWQFubmXQ+QnxHwac83SELtoAd8kGlR7eHvMWXT2LAqN4wXyz5YA5R6CzLwiGMab0vqAeuw7I9rwC88x2O+rZzPHZWUT0HHkQNIa7OayLSgYFf7iDO7U62lX9CkrpufPkagvRRUUdO0/Xtndf5jQHcoQBYserOm1Z5VMVwnKe4yJiRFPZqxbHE02POkHTM/4ORzSqtyKjkIqjMaAJKxbN+tgRrobb1m9pGg+VGSF9Sj25TWqB7b6HMnbr1s9o5vNASI+D8zlq1ej5UgcUP7/GenpVJ9Pp2s+JmymZuhlOgElOQA0trEcXrBfpUIGw4YNUxbFTuVzzJeSCClCEXYMGwXXfjbiN39CQL2UAmGwcc5Zi6Zs8cS51eYUXHyhq4SSxI6cgBp+U8s169dX/nV7DjMoWoSOe2wSidq4OtUxmLG35y8ccBg3UYAuVHiEH7D8ZNe785Y9ioAG05/NXJqxDfQaeFVrC0Ki7dro+pLXg8jA45jGhmVB1ZFJ0wDKAZd4ZjZIZvPjQDyJQIuVnGOGb938saHVXRVdKSo95mMpflsScV+3Dpyb5DW/cSaUujZP03uw555Yn66nM/tFncuB+zrBftPRDhUZTwGdzlm7gqfN0jPRwiuUl9rBpcdM7eVinMqOnqheB8RbeAwamSj5mqH9c7uvFvFftw6cgBp3U+szAL7GGi4yRsguLOcNz4Ydy4HAcQhwoZq3CDjNmrTsNEbZGL3MztMZE15QrVmXGq7Fac/bIEZAAAWD0lEQVRPfyWIY6qymULxWhCd5KWfNLN4kFikANLCn1i6VfwigTyrJxp9tgTJURDZzDx7R6TVedDK3D4Z+W2H8DI0bHCZsYovALRDEOcGyQ7ZaFG0IaUmU26CFt5NlwJIwqz5UolfL6QX7AIRPDdikyz30a3iZwmkdO6EGU84eWOjvZOGANEL9k1EUKOK5OS6OnV025/TGNd73VRmXO/kjROD3PikZEc8QKzirwm0gce24Scu8dG9Xblbk8ipXrB/QoTjVMZq9qZrCJCOQvFsjWhDE5EgAw4n3gqiG1RWqk8h85+dfO7goLaTkJcCSAt/YslsErqEfStdxj+TyKduFd8gkNKKWf+px+OdvLHR26chQKRWJzwirrL29qX5zr/HnZRJ85+bOiG15kXvNwi/4eRzW8fti4p9KYC06icWM+lWqeq3Yz2YQkclR7I6mULpABAr90Gs1cZN7z1zl8XDx2sIECGUsYpLAZos6+AQOcKccpchGqvEfsm0IV5L9KblXdlXY3cm4AByAGnNZd7MAvst0PCkZ8iMV8p5Y7uAaVES1y37OwR8RUl52DHbwTaaA6RQvBVEaueIGf8o5439lZwNqJQpFB8GkedYrbrUKweQ1lzm1QvFY4nIr2riT2XTeF/AW6okrlvFfxFobyVlj/4lHm8QicYoHt70pdxtls3c9XUlhwMoZazidQB5TsKTPo8g6/6IBojEX2wGz3fM3Fmy+VCVm7Tw2e0n1PqWqOoDaLry2hQgoZgh+pszuKCzKmZ2fginpVRlOvO6wNUV0/Bu1yY1WrRCIxwgvyDg414ZYdBMx8xeGW3WNraWkWkD18QJBpiq6CifZSxtJNIUIEI4TEN2Bp50TGPPuJOjL+g5nDT3N97j8MNlM/eOuH0Jal8OIK05B9Et+78E7OwZs4sDyrON2Jv/ZArFp0CkWrX9YNk03tUsDk+AZAqhjuCi6vI7l87OPRT0wQkiL1P2zuA+51VjUlIVpbL+ywGk9eYgkxe8sNU4bZXv53M5tcUWmDl1pWw+VOT0Qs9BRO79KrpCh4GvOKbxXSWA6NaivQi1x1QHR0LNG2VW3IafFFOOKUJFOYC03htEL9gfI8IvvT+v+FnHzE2LMF0NTcnMQb18cCk9rdI1rekhQc83SP0zyyouJtAuSoEyryint9w27r8iGat4F0CHed4wRt7JG5ZSHDEpyQGk9d4geqH4bSL6qg9AhtDnxJLCa56erK9OvUaENiX7EqutMgD5PoHOU3Kg/gqLf6KWsYrfAuhrnj4mWAIjm6uRCpBMoXinX/NRl/jsSlfOk1BONk/N5HTLzhOwQNkO0xfL+eylXvq+AJnSvejtaa6pzyMkUKoc4HpFuYk6/tPPVqHWwTesg030pQDSgqUm/ZRLvf2US1O80pLEJ22orswAVpG746quXT0rMXwBUv/MCtMeur7ki0MqpnFfTM8ZcM3TkzNrUg2X6QaPmTTBtl+8UgBpsVITmXkpM1edbYwJOIZqfjlQ/b3d6jksBVeZmJzBv3bM3Mf8xpcDSLfdRYww3++eS2l+Tsr8nrHsIgDDc0IGOqJiZu+QsZeEzEgESIclw8UbP5tMxio+BNDbVe+TLBWRFEAw9/mJmQmrxbLeJFWHaowP9uaNO1X1/fQyli0Yxk/2nofgh+W88QU/W0n9PhIBIkPKxoyLnbzx5bjyqFvqp16FTww875iG9x7OeuflALKOYtKXTd07IfFu1kmxWSQwHwryUMgBpLWWeTOWLU6Lbus9/4i3L4tu2Y8S8NYguR4sG+QQlzRAJi/oyaU192k/ihcvp5n4Y05XTum8u18ypDYMGa6D9vbhxyr9bMf1uxxAWmeZd/LCxTPG1apPed5jMf+o0ZY4y1gTR946uktHaMy3KdtmrCqjfVvZZ0AaIMIh3bJ96288kwf80zGNfZWD81HMFIovgmiq5zzExScrsw1vytK4HBxmd6QBRPIgXazzzZBlJeIOBCJZDwiQRe8m1P4c5vlxwadUzJwSQbbfuFJHLhk/KueNU/1sJfH7SAOIDKVOnPMPvVCcSURDaHmC3CexurYmPX7nlTN38eTyGmwzEECEYujVA8CpuhONwfynQYL0ks1YEiX6CR7iaerr3OcnTpm0dseU657t1zqAGQtAqauoWiuXOyY7OGG7FVHlK4idjh8u7tDaqo6fTlx9Ibe4atGbxq+tPa1K6SP8VuEnCAwQvbv4UWL6lV+ivL9T4yFSkKV9qVLqHUu7pnsTnoUIsN0qTgdTVtPQCcabAexAwFQwTwVoqt8mm+/QjJcBdhh4jUC2C36COfUkTxj/z7gaqeoFW3QV/omPbyvLE9Nb4eRpq31jCCigW7ZvmwVfkwrc0YEBUp+LFOxH+ovVQs0lakTv6+3K/sk3qIACMifLGLjIMQ3PWiKZYacUStk0+GAmvBWMTgBZidbUMqbDyLwK5idcosc04MG1Vdy7/CxDrePrIC8yVvHnAHm2kmDgDsc0PDsPqwQWrufguhEZ+F/HNAIznqgBJOQ69LrXHS92tlk7A8fssVYlac10ZOqyRN/ufgYLz03FRvbFm4GIDiHGIQAOIWCnKH2P0dZ/mHEvEe5VAsy1iydkVlbLIEz08tGNo1GOGHtVXykET5v4tHJdd1y2ESmDX86VACKMypwF9xs8qr/kg8dpv6LnbSnX9WVUqbnYr3e28aifj+0Let6naXw0wf1YmJvkN07Cv/+HgV/VKHWbzKdme3fxqBTTz/18jKOURy+UvkfE5/uN7f07/7hs5jwZOJvpKwOko9s+RGPcE85xcd6RDnK6ssp0LY3Gz1jFJQBt7+Ubgy91zFzDLrnt3aX3aoxPgd1PEVFiXMNhc6miz8BzDPycWLvdyXc+0MiGzPc/g+93zJwnT3JQ/zos9Y5ng8fyO/Ph5ZcyQIRR3bJvJ+CTQQMfKs8v9rmT9o5yVUu3St0EnuXpF/OScj63gV5VcIGl4J4AsGDrGNWgaJoXxisA38Ru6mrnzM4n6nKyZUYR91IUq1Zta2v/AiEUbVDYr5RQAOnoXryLxtWNyLaCA2Zo8/bg+kM1ZBgXhQZznXRAzCNmESH28/Nh40pUn/nvgHaVq/FqP3pX4dfqWtsOK8/cOQyzyJDwZPZc/PPBL5ZXTzTwhZ1EHxmlKxRA1r9F1Am7BrscMdmcTO8QpYyNKW2UAQbudUxDqSdHw086iROLMreBmT/r5HM/lZFtJhMaIFi4ZFKmuuIZEHYM44jQjXLpNyzhRNhYfPQFy+PrDJ7kd5xZrPYRkfgLKOhTPYsEY/a5uXnGaeW84dmSW9a3KJZ0618HwH2OaYjVxlBXeICIuYgU9Y6/n8x4bY3btk8Ur2qZ4kV/j5QkVjO4CNBTRHiKQc8Q87NVpteJxr3Ra755w260XKnJ0Greduu/OmvVrdOuuxUzTyOiGcyYAeIZBMr5taRTishHyV2T1ivnTKuEtZ0plHZi4scICN1XspZCtnem0RPWp0gAIpzIWPbNAD4V1iEGP+Zwx0Gy1ZZe48mwj4f2l/G3Omky059dd9yTQdbaVQDi56/Yq9GY3sLAwRrhQACiXXZsV1SrV/rCnnZU3fujmAsy09ecfPY7UQQdGUDWNXTsE3851QivB0XDIVsWdBSK+xBRgYAhHUujSJjwrX+z8N4a0X29q9r+FmYCGAdANopx7vMT2yesPTDF/B6Ge7BfyzqVHDHjHkphdnmW8R8VfbFSpretvpsITQnc5O1G2/o7MoCIADqs4skaSJzsC30x4xdO3gi0hCzoUtM1+g6BzgjtwFADonn8dVTF9VH2+04EIMMSsf4z5nMATiHUy2MiuxgoIKV91ZnZ2RvEqG4Vf0WgjwbRaSYbdeuNSAGy7lPLv2ZHOhGyxHNzOJ3ZtnQWAxcS0C5t30NQzIcI/NNaKnVD76zOf0Rhc7gNOYDEd2CqvvdDNQGWYwkUSQ8VZn4DGn3deSW7EHPI9cubXij+LxEd6ycn87sfS6KMjeEykQNEMIzoa1L/jqpOye98wZaF4m7jAJHkfVQSMESHeQWgXe0S3x4rC8v6QaUAkhDtT70ywuUjADrdr+ZKLs/8cFVLHb90VqfdTD5j2T8E8Hk5e95S4jPPyRvvjcLWYBvRA0SsanWXDiTmhmULigGcWzaNucN19YJ9QT+rXlNe1aBjuVpqn8qs6epUqwEHlAJIxDvUfi62L7D3TWl4xE9O9vdmLP9R3jsGetekxu0W5CCUrP+xAEQM3mEVv6aBviXriITc6WXTuFrI6Qt7dkbN/Wnkk/CETxvKASS+T6xGOZdprS1xr4aKMN+9Znz6uIH24JJHd6WGEe0LXFd7f+/szrulFAIKxQaQ+oNs2b8l4MMBfWoqLugsNVdbBbhzQbRlVHYH26mBO3vN3KI4bA+3KQMQFzinYhpKDVWDxlA/30Lc9JMoqL3B8gw45GIWExlE/O0wtoboRlyBMdyveAGysKedarV/j6QycQbHT7q8/i7IAAQJMiuGav8d2RMvbyjsdoDMSLECRDgQtmOuTBB+MqJJPCiVB9dE43vfosQa6G29Zjay7/Bm/skBJBlerHartF8K7L9ax/wUmE5lwoKwp0r97pvn74wXqm0T9o7riPHA2LEDRAzUUeg5ksj9eRhOLcVkvtrfYOtr5dc6rxFLjpkF9jHQcJOvLeaHyvlcrDvQwgc5gCQzB5E9AFcjPrq3K3crmKmj2z5JY/ouCG/yzWmUAoylfZR6+zJz+jNRmm1kKxGArJ+PfImAi+MOaMC+YLDgtemzh9cIyZafuEwnVvLZ6+P0Vw4g8b9BdMs+vn/T8Aa/WPuPBzzq5I39BssJthNqq84n4Hg//ah+dwmHVrqMe6Oy52UnMYCs+4tpXw1CrJxUDH6dSTuj0pW9vVHg0sx8jFc4re0adFc4yE2TAkjc+yDXv7xFZvlS2+8EpoiLQYc7ZvZ3zfJK7F5NoEyQHASV7ecTOL6fT+DGoHqq8okCpP4mKdh3EOETqg57f5fy7WtrNNOPxUOa2yvmZV8pgMS8D6JbxYUypTkM/MUxjYO88r/lPHubcSlcFdf9jbIIUfb5SxwgWMjj9FrpTkKdGSTSi4Hf9RGdtLwrK85bNL06rli0N7m1f8rMiaI8ozLcITmAxDcH6SiUDtWIfamXGKiBaB+nK/ukV17rBauo/hiED0R6Y9ed7/iJYxqiLCbRK3mAiPAWLpmk11YIkIhy7EgvsatKwHkDm4rNjOsF+0oi+PdOZ7zgrk3vGcV5ByWAxPWJVXh1S516RUmQfxsA5nnlfO5srxuVKZROj2t/isG/ccxcJMWMQR+2TQMQ4eW6mq17CBgy6QsaQFN55rs4nTrNmdn5XCOZeuVvVbNlqCwZ+KVjGpF/Fsq9QeKZpGcKxdtA5E/yJqhaJ9QMnDpjWaM8iqoGqrmCaznyOigxHgOPOKkt3hN3I9hmz9GmA8h6kGRWa3eDaP/IgDHEEC9j4HzHzDUkPA7SBNJl/nwln7s8Sj/lABL9J1aHZX9eA0ShoO/VdFLMTHp3ySTmi+OqaqiDo612aDNw+jofgcCmBYgIQLzqUfkdEXlOAMPEKnZcXXf8SY1O+8lQlQ6MHfVZAzmARPsGySyw3wUNf5XJZ7MK2faFdqdW5etivWdiUYDbPxTFyVKZWFvzDTLg1bWLJ+irqr+LY+I+KPDVzLh6TXrcRYOrPtdN2KsPE2i8fyL5xer4iXtFtXsrB5Do3iBilWl8GmKiLUH+wMtQpd0HHxAT5OCcxlfAOEW5N7l/kgUf093lbdYeHjUtrczQw2U2/RtkwKP66pZ9PYE+oxKIrA6D1wJ0DVVx0cDNl2lMOWA/SoqbRAEyh7XMtiXBYClVIeCydlQl31nv5LQOGPx1ACfJ/SGRvRsN5W4pb509Ns4OuUG8ax2ArPc6SboeZlyFtPZtMZHXC8XfENHhMskTek7eCH2sNzGACHBsU7oJhKOl4gNucEzjhPoEvOp+g4k/R6BxMrqqMqJsncEXVsxcdJW+qs4M0ms5gAjf9O7SZ4g5FOFXwNxc6xLmay5+KcvvFQVIkgKITGfaQW/I50F0OLF7HkAnBsyjqvhq18VnWqU13uAgWhIg9de6Zb+TGb8kwjaqWQ+sJypViXaT1RPdn5y8caas/HA5OYCEm6RLtaUb6phgJtldNabAeoyXa0QfTaJ6OrBvAFoWICKYSQuf3b6t1vebMC1/VZISRIeBbsc0zCA6A7JyAFGcpN/Mqcxr9i1Sex0qzkegI5Zxqyn3Q8tm7vp6BOZiMdHSAKlHXG+gUhVVtaFJ6WLJoDCqWLMlBRCVnXSxKriyejMRPhZbzCENq/QLDDmkknrrA2R9WB3d9inEmBsVrY9StryV/lDecvJRQZpsSgEk4InCesFgGn9o1bdunRYIdHaSFblh7vWIAUj9k2v+c1PbUquvJNBHwgQdly4DT5KGT8syDEoBJMAbRLdEm+7qTTKl63HlwMfuLX0p12zlT6rh/o8ogAw432GVTtTgzo+C5jSWB4Xp8jKmfM1vFzgqgAheW665l2rAabHEE9Yo42WXqKtiZu8Iaypp/REJEJGkdRSa7o0EenfSSZMdj8GPg+lpJvwbRE9oNX4ZwFIQLeU0LUWtdgaBLvGxdy6ntGuoylPAPEUc83dJ217T3D3BeAuDdyXQXrI+JS7HuIbT2rlxHjyLM6YRC5B6UpgpY/Wcy+QKPl6JUpE4Uzlme0gGmJ+qMk5eOjv30EjOzMgGyPrMZ66wd4fLlwN02Ei+GaPFdwYucEzje6MhnlEBkIEbIboTMeNSAvYYDTdnBMbwB1RxWpQM+Js6B6MKIBuAYtmnrWd6Fw06x664M8D8VA10YW/e8O2lHrcrUdsflQCpJ+lmTumvl44l5q8EKR+JOsGj2x4/7Lp0USvWUEWV99ELkEEZEoRxTPzlSFokRJX5kW3nT2D6fjmf/f3IDsPf+80CIANpqLN4gC+Ig3XDP9UjW6LObMK4Fa72befMzidGdjTy3m9WABlIiz6/Z09KuecAOFk+VZupJGMpE/+Y3fQPKrOn/3dzy8JmCZANQKnvQPMJxHy6DKn15vRwMPMDDO2qSo1vwlnGms0p9sGxbtYAGZyIKQuK70gTfRrEn2nhWqZYn9N+BpMSgX7aR9qNSRBDxxpMRMbHANIgkZlCSbSPPobhfpyIpkWU65Y0I/rSE+gXjNStjjn98ZZ0chM6NQYQn+TXKW5cfIBcfj8TvbeFy+0lHyN+iUF/BHBnXxV/8OMxljQ6asXGABLk1opTeq+W3u4SH0bAYSC8K24ygyDuNZRlXs6E+wQo+nms/ujHrxt6vFFmYAwgYW7owiWT2murDiCuvYVImwHwDGLslnhDmfUxMPhZUT1MwFNM9DQxnizns1IkcWHSMJp1xwASx92d+/zEKZPW7qi57lQC70CsTQXxDsyYCvBUEKYS0/ay/cjrhNzMSwAsYaIlYLzIGr/ELi1JgZa4rL24OS7BxnHrhtscA0gSWR4bY8RmYAwgI/bWjTmeRAbGAJJElsfGGLEZ+D9F8Ecxy0RDbAAAAABJRU5ErkJggg==;" vertex="1" parent="1">
          <mxGeometry x="520" y="460" width="40" height="40" as="geometry" />
        </mxCell>
        <mxCell id="C-2PJ58ULMP3kAUmGiD7-10" style="edgeStyle=orthogonalEdgeStyle;rounded=0;orthogonalLoop=1;jettySize=auto;html=1;entryX=0.653;entryY=-0.05;entryDx=0;entryDy=0;entryPerimeter=0;" edge="1" parent="1" source="C-2PJ58ULMP3kAUmGiD7-3" target="C-2PJ58ULMP3kAUmGiD7-8">
          <mxGeometry relative="1" as="geometry" />
        </mxCell>
        <mxCell id="C-2PJ58ULMP3kAUmGiD7-12" value="作为&lt;br&gt;数据" style="edgeLabel;html=1;align=center;verticalAlign=middle;resizable=0;points=[];" vertex="1" connectable="0" parent="C-2PJ58ULMP3kAUmGiD7-10">
          <mxGeometry x="0.5654" y="1" relative="1" as="geometry">
            <mxPoint as="offset" />
          </mxGeometry>
        </mxCell>
        <mxCell id="C-2PJ58ULMP3kAUmGiD7-3" value="" style="shape=image;verticalLabelPosition=bottom;verticalAlign=top;imageAspect=0;aspect=fixed;image=data:image/png,iVBORw0KGgoAAAANSUhEUgAAAMgAAADICAYAAACtWK6eAAAAAXNSR0IArs4c6QAAG4RJREFUeF7tnQmUFNXVx/9VXdU9MyzDpiCLgKiAILgTcAOXSFRQQFFExEgUgluMJhpRGHDXL3FJjAZFg4oohkVBEURBDAqIigsyiBurgDPAsM30UlX5bsEgTFdVV1VXd1fX3HcO55j0fffdd9/9zdtfCeDEHmAPmHpAYN+wB9gD5h5gQDg62AMWHmBAODzYAwwIxwB7wJ0HuAdx5zfOVUs8wIDUkobmarrzAAPizm+cq5Z4gAGpJQ3N1XTngbwApKysrKMqCF0gCG00TSt0V1XOZeSBgs/nLS0+67K32DvGHvAtIFu3bi2OqeqNEIRhAtCGGzAzHghPGpcQ2x4ztLjP8JczU0J+a/UlIOXl5cckgDkAWua3e/1vfeT5OyDEqlSl46lXNuo3YrL/Lc6uhb4DZMu2bWdoqvoGgOLsuqJ2lqYDsnMrECliSAxCwFeA0Pxic3n5p4IgdKid4Zr9Wu8HhIpmSJIawFeAbC4vLwEwJvthUntLPAgQhsTfgGwqK9sjCAKvUmWR1yRAqiE55rQhjS7mibtvepAt5eW9NWB2FmODi6JRVfUcpKY3eLile8Q3gPDwKje8mgLCwy3fAfJvAENzEya1t1RLQBgSX/UgDEgOOE0JSC2HxE9DLAbEr4DUYkgYkBwEpZ+KtNWDVBtcCyfuDIifojUHtjgCpBb2JAxIDoLST0U6BqSWQcKA+Clac2CLK0BqESQMSA6C0k9FugaklkDCgPgpWnNgS1qA1AJIGJAcBKWfikwbkIBDwoD4KVpzYIsngAQYEgYkB0HppyI9AySgkDAgforWHNjiKSABhIQByUFQ+qlIzwEJGCQMiJ+iNQe2ZASQAEHCgOQgKP1UZMYACQgkDIifojUHtmQUkABAwoDkICj9VGTGAclzSBgQP0VrDmzJCiB5DAkDkoOg9FORWQMkTyFhQPwUrTmwJfzyOIhl67NXcp5dumJAshcavixJfvNphL77NKu2qZFCTex82uDivv5/C5gByWpo+K+w0JfvQ54/KfuG5UlPwoBkPzR8VaJQuQvhiXfSC+9Zt0uLFGqCz3sSBiTrYeG/AqXP3oH0wWs5MczvkDAgOQkLnxWqqZCnPYrQhlW5MczHwy0GJDch4btSaaglz3kW4tqvc2KbX3sSBiQn4eDfQqUvFyC0aDqEWGXWjfQjJAxI1sPA/wUKuysQ+mYpxDUrgO2bIe4oz5rRflsC9g0gm8rLXxaAQVlrCS7Izx74V9PGjUf4wUAGxA+twDbU9AADUtMj3IMwJQd4gAFhQBgICw8wIAwIA8KAOIgBHmI5cFbwRbkH4R4k+FGeRg0ZEAYkjfAJflYGhAEJfpSnUUMGhAFJI3yCn5UBYUCCH+Vp1JABYUDSCJ/gZ2VAGJDgR3kaNWRAGJA0wif4WRkQBiT4UZ5GDRmQIAFC9yWEsnXA7gr9opHWuAWUNsemER/GWYUdZfodDaFqN1CnGGqdBtAOOwJauNDzsnKskAEJAiD02IFYuhjiz+uS4klt2AyxIeM8i7PQhm8gvf44hEQ8uazWnaB0PSsjUHpWAWeKGJB8BkRctxLyey9BqPjZstnj5w2D0r6bs9AwkQ6/+gDEzT9Y6lLadIHS6wqo9Rp5UmYOlTAg+QqItHQWpMVv2IqdRLc+oH9epMj4W/YOrVIkNVIE5cKRUFocnUrUz78zIPkIiDxnAkKrltgOrETPQUh06WVb3kowPGksxPINtnXFL/g9lHbH25b3mSADkm+ASB/OgLTsLdtxpElhRK9+ACiqZzuPlaC0fB6khVNs69JCEmKX/Bla0za28/hIkAHJJ0DEn9ciPPley/ihgFSbtt0rI4ag9OgHtdm+/+1R5FHvJX7/BbB7OwQ1AXGT9ZxEKz4E0aH3eVR6VtUwIPkESHjGY6YPqtGYXz3lAiidTsv6cistEoSWzYa04r+m0Zs492okOvbIanR7UBgDki+A0Lcz6BsaRolWixIDboNav4kHMeFeRei7zyC/+ZSxjR4vN7u30lFOBiRfAJE+mgHpY+O5R2zgXzwfRjkKowOEpUXTIH3ytmF22o+hfZk8SgxIvgBi9gUm5eiTEe99rW9iTkjEEJ7wJwjR5CdDE6dfgsTxv/aNrTYMYUDyBZDIv242DLr4+SOgHHmCjbbOnoj01tOQvk3+WlTimFOROGdo9gxJvyQGJC8AURIoeHKk8bDl8lFQD22dfih4qEFaMhP0r2ZSWxyF2IA/eVhSxlUxIPkAiFC5E5FnbjUGZPAYqI1buI4UsWwdQh/OgLhxNbRwAdTDO0E5dQC0wrqudUpfzIe0YHIyIE1aInbFaNd6c5CRAantgISfux3irm0HuYHObdH5LbeJAXHrOfN8/Hi1lU8rd6LApAeJDh6jH2t3k4StPyHy0pikrFqdYkSHPeJGpZ4n9Pl7kN9/JbkHadwcscElrvXmICP3ILW5BxG3rEH4leQdbhpqRUc84ToeuQdx7TrTjNyDWPg0U3MQIR5FePwfISgH3+2gE7jxAbe5bmVTQBq3QGxwco/luqDMZ+QepDb3IFR3acUHkN59cb8b6MhKov+tUA9p5Tr8GBDXruMexI3rhN3bEZnwZ8Os0aH3Qis+1I3a/XnErRtBH8+kpDZoCpqDpJNqQleti3THrronHdXZzss9SD70IOJP3yH82kPGgIx8EpokZztwLMsL/fgl5Df+niSjyRFEf5/8//vK+IONYUDyARCz24NapBDR4Y/7Lr6sDlbGLvvLL8fxfWd5kkEMiN8Boeut8sRREKN7klpPad0Z8Ytu8mWYRZ6+2fATzn622cCRDIjfAZFffwKhNV8ZQuDnOxbSvImQvl5kaHe812Aox57pS7BrGMWA+BUQGqaEFryM0MZvDQNJq9MA0WEP+zbIrOZNZHTixN5QTuoNLVLk2zoAYED8AoiwaztCqz8GopUQ1peaglFtr5dP+VAwi5u+B+QCqK06Qi325uKVPHs8QquXmQJA14OVDt31x+dQr5H+nla6K2ge08aA+AEQq0tGRg1Op3djl4/yJBakd19Iuiob7/07KEefkrZ+YXcFwi/cBdqQtJvogQe1+ZF2xTMtx4DkGhCxfCPCk+yfT9KK6iN+6R2e/JUX9uxA5NnkHXPVwzNT9BKjPPX/bAeyz4aODEiuAQl9+T7k+ZNsB1D0qnuhNUhvY7C6MHqNJDzlgaSy9aeCRv7Dtk2pBKWVH0F65/lUYvt/j/32Qb+8ysiA5ByQHz6HPPNJ28GTOOVCJH7V17a8laDVX/eqm8Z7UgYpoR6EyrKTtJCM2DUPpXUfxU45NmUYkFwDQuXTiVo6WWs30bVVur6absoGIKkm6jXroJx2CeIn+ObeOgPiB0BoMhv65G0IW9bq5tADcVYTWzpaErvqPmh1G6TFSKYBoRUsAsQq0ZNFWr3G0IrqQWvfzW/PlDIgfgCkpg30aYHQig8QWjpr/yHCmjKJI09A4vwRvgVEP0o/cRRoIcAoqU1aQelxEegleB8nBsSPgFTbRKd4w689DPpgjVGKXn0/tDQei8tkDyItfxfSwlcN7VaOOgnx31znYy72m8aA+BmQvcOtdQhPNj4inuh+ERInX+A60DIJiNm8yusP+riuvL2MDIjfASH75LnPIVS6OKlJaZgSu+Jue01tIJUpQOgRCHoMwijF+97g92HVgWYzIPkASOjbTyG/9XRSvNFkPTrS/hJxTQWZAiS0vhTytL8ZAuLl8rHrvwz2MzIg+QCIsG0TIi8avycVveZh16tZ4vpVCE/7q+eBHFr5IeR3/p0MdMOmiA7hG4X2+fxFkh9tsPJahp79yRgg/OyPGwYs8zAgDIjnQeWBQh5i5cMQC9yDeBDrrlQwIAxIBuYgPMRyRaNVJh5i8RDL86DyQCH3INyDcA9iARIDkg+A0LmmyFM3GrZjbNDdrl9BzNQ+iPTZO5A+eC3JXrVpG8Quu9ODP+xZU8GA5AMgZGPkn9eDDjHWTPE+N0Bp6+7AX8YAWTAZ9PxozaS07Yp4n+uzFt0eFMSA5Asg4Rfuhrh9c1KbJ447G4kzLnMVC5kCJEL30LdvSba1Sy8keg5yZWuOMjEg+QKI/N5LCH21MClO9Bt4v30AdFfdabJ6msftkRB6mUWe/YyhKfELR0I54jinZuZSngHJF0BC60ohTzc+36S07IB4/z86DiSzzyrQJ93cfKZAqNii3440+sIt3XOPDX8UBHQeJQYkXwAhO82GWfSbelg7JHpe4XjCbtQz0V0NurPhJIW+Wap/l5CeSjVKia5nI3Gmu6GgEzs8lmVA8gkQq+FLdT2U5kdBa9kekCRodGuvzbEpY0b6YgGw7+Yfgaa27mSZhyAQ167Q5xlarApS6WLTm4OkiB6Io5dK3AwDUxqfWQEGJJ8AIVtpmEXDLbvJ6wtK9CSqPOVBCImYXRP0noN6kDxMDEi+ASLEKiFPeQj00Ru7yctnSqW5z0Mq/chu0Uh06akP/fI0MSD5BgjZS5NredY/QatQdlKiWx/QPy8S3ZEXfzJ+ULum/sTJ5yPR/WIvis2VDgYkHwGptpl2q2nXOlWivYdEl16pxGz9TmCGvl9uKasV1EXinKvybUnXqE4MSD4DQrbT276hha+Yzkv0N7SudrdPYhQxBAdBYpTo89FKp9OhdOsD+u8AJAYk3wGptp+GXeL3yyGUbQB2V+jDMAgilB79oDZr62ms0oalWLoECIWAomJodRtCbXk01NadPS3HB8oYkKAA4oNgCqIJDAgDEsS49qxODAgD4lkwBVERA8KABDGuPasTA8KAeBZMQVTEgDAgQYxrz+rEgDAgngVTEBUxIAxIEOPaszoxIAyIZ8EUREUMCAMSxLj2rE4MCAPiWTAFUREDwoAEMa49qxMDwoB4FkxBVMSAMCBBjGvP6sSAMCCeBVMQFTEgDEgQ49qzOjEgDIhnwRRERQwIAxLEuPasTgwIA+JZMAVREQPCgAQxrj2rEwPCgHgWTEFUxIAwIEGMa8/qxIAwIJ4FUxAVMSAMSBDj2rM6MSAMiGfBFERFDAgDEsS49qxODAgD4lkwBVERA8KABDGuPasTA8KAeBZMQVTEgDAgQYxrz+rEgDAgngVTEBUxINSq28cMmC8APYPYwlwnbzygAQsajJ3qzWe6XJgkuMjjWRYGxDNXBlYRA8I9SGCD24uKMSAMiBdxFFgdDAgDEtjg9qJiDAgD4kUcBVYHA5IFQOgrsEq746HVawShbD2kFR9A2L7FWVDRp5aPORXKIa2g1W0ECA7XNzQVQvlGyKuWQNj8o7OyTaS1hs2gtjsOat2G0ArrAZE6QLwKQuUuCHt2ILS+FML6Vd6UVdwEiePOgdbwMGBnOcLL5wHlG13ppvZIHHk8ULcRhJ/XQVqxEEJFmaEuBiTDgKhtuyDW54aDnR+rQuSFu/QgSpkiRYif8GsoXXoBkcKU4nYEIq/e7xoSQQ4j0el0JDr8CtqhrVMXt2s7QquWQP50LkCfqHaRtDrFiA65BzjwG+xVuxF57SEI2zY50khAxy4YeXCeaCUKXrjL0D4GJMOAxM/9LZSO3ZMaMTz3eYilH1k2rtbgUET73wbUbeAoCFIJh5bPg7xwSiqxg34X5IgOaoJALazrKK8uHKuCvGQmQp+94zivctw5iJ8xMCmfsPUnFLx6H7R4zLbO+HnDoLTvliQvz5mgg1wzMSAZBiR28S1QD++Y5Hjpw+mQls02b9h6jRC99A5oHsNBBYrffIzw28/YDirUaYBonxugHXq4/TwmkjTEDM/+F4Rtm23rSvyqLxKnXGgoL369COF5E23riva/FVrL9smALJqG0CdvMyAHeiAbG4VmDSItmQn6Z5aig+6Gdkgr2w3vRDC0bDbkD6fbykJQRPveDBTVsyVvR0iLRxGZ+xzE7z6zI45E94uROPl8U1l5zrMIrVpqS1fskj9DbX5k8h+sj16H9PGbDEg+AKJ0Ph3xs4bYanDHQtFKRF4aDWF3Reqs9Ruj6rI7AZqAZyCFpzwAcdMPKTWnAoSAK3jlPlvzEQYkpbt/EfBrD2LZe+zZCfHHLyDu3Oqgpr+ISl8vAuzkDRcgOvAv0BodlrIcGjbRCpmwcyu0onqguZPW/KiU+ciOgsnjgKo9lrKpAKHMducjDEjqZtkv4UdAaM4RveZhw1ro4/cZj9lb/XLgByPR+JmDoHQ1P6NHPZC0fB7E0sXGvVG4AOoRxyN+Um9LyOzMh+wAQnUQV/wX4XdfsKw5A+IgMPwIiHpYO8Quvd2wFukszzpwC2h/IzpknGkW2tuIzHpSX5myk2i4SMNGsxT5zyMQNq42/d0uIKTAbDWqWjkDYqfF9sn4EpDWnRG76CbDWhQ8cZ2D2rkXjV54PbQjuhoqENd8hfDrTzhWTsu0tFxrlGizLjL5Hk8ASTUfYUAcNJ0vAbHoQQqfuhEUABlNdRqgapjJEG/rT4i8ci+QiLsywQo80itsWWuo10kPoiso36jvjxjZyYA4aDo/AkJ7DmYBGn7neYgrrTcXHVTfUFTtdBpiZ19l+Ft41j8hfr/cdRFWQzdp8RuQls7yBhCL+QgD4qD5fAkIgOiVY40ntrEqhN+frK8WWaboHojbNzvaYd4/Rv/NcKhHnZikXqj4GZGJoxx411iUjt3Q8Zuaic6H0RzLKDnuQfYpkedOQKj04N1xBsRBE/oVkMTJFyDR/SIHNTEWFVd/AvnjWRDKNtjWZQZn6NO5kP/7H9t6zASVzmcgftaVST/T0JGGkE4AEdeuhJaImc6XjOYjDIiDJvQrIAhHEB1yL+iQnhdJX0qd/xIQrUypjpaYjY630NEU0pNuotMBtM9jlArG3wJU7U76yawHIUDo2EoV6avf2Ni08o0onHL//t6UAXHQgr4FBNCHIUmngB3ULWkIs2UNItP/lhKSqpvGG5ZC+y/i2q/TsGBf1kgRqoY/ZqiHVrJoRatmsgRkxqPQmrZBlHb8TdKB+yMMiIMm9DMgVA2l61mIn3m5gxpZiwrrSvdCYpGqhj9ueKw+PPMfEH/4In1bwhFUjfi7MSB0XGTLGseA2PFV9XyEAXHQhH4HhKqibxye9zvzIYSD+pKo/P4rCH3+nmkuunehNWya9DvtUNNf4nQT6dbvdhikyIQ/Ge7Kp+pBqlXFLvg91HbHG+rW5yOv3of4WVfxYUW7jZgPgFBd9EtK7btBadsVaqPmQHETu1VMltuzEwXP3moOiMlx8NAX8yEvmOy+3H056S4G3ckwSmYboXYBoQtVVYNGm/uHzosl4tCaJl/0kvg0b3KTuAGExrvx7hdDbXYEEKuEuK4U8qKppuej3B53dxuJdLFJadkesV5Xml60ikz7q+lV2HivwVCOPTO5+F3bUPCc8REYJ7aa/pUv34CCSWMNVdkGBNCvCJgtAljZyYAYeMcNINFhjyStLlkduMs2INXV1Bo1Q/RK4/NUZsGgD+kOPwaxi/9gGEvyuy8itOIDJzwcJEtXdKOXG++lWN2PcQIIFah06Yl4zysc2cmAeAAIHf2mfYKkZPHXNVeAkI2xvjdCbXNskrmhrxZCfu8l0wCquu4xoKAo+ffKXSh4eRywe7uj4KsWjl5+l+mtxMiLo03vczgFRK+7yYanmeEMiAeA0LAqNvAOR+Nns6CgG310sy+TKXb2EKidkk/RhkoXQ577nGnRtElJm5VGSdiwGpGpjzg228wWUiSuW4nw9Ect7DG+Uajvg8wwyZdqPlKjNAbEA0C04iaIDjU+DmF4FL2wHqqu/athw3u2bGoRqjTEoqFWzUQ74rQzbpoihaga+oBxL0KZyjcgMnu8fkkpVaJNR3q4Qm2VfC+/Om+qY/xuehDSrTVpgejAOwFJTmUmGBAPACEVVSOeOPj5mX166Y5Ewcx//HLaVpIR7X2d6TEIsyXNlC1pUyB+an8oJ/Y2hnP6o/pfbauknHge4qcOsJSRPn4L0ufvAnsMnvOhd7w6dEe8Rz9Df1UrpuMwtBtuldwCQjqVTqcjfnbq68sMiEeAxM4fDvXI5MN8uvqKMgg7y/X/1OjoQ33j5dhUQwpEivSVJOWwdtDkiE0kDhArqKv/9TRLBeP/kPKaK+U1O1hYU6+++x094NqsFIbWrG1Ku6kHirz2YMrd/XQAISPMnvo50EAGxKC5KkYP+DcEDE3ZkgcIWN34s6vHapmVdGTyRRM711L314POhF1yO7QmLe1Wzb5c5S5Eptxv+qLhgYrSBUQ/2zZwlOFws7oc05U9DROLx0292n7FvJV0+H6mt4VXjOl/DyDc5VQr3ZegexNukv7K4JwJplm1xi0QHTzGjeqUefS/2E4vPBXWQ6zP9Xv3fbxKO7ci8vrjtuYwVGTagJCSxs1ROfBOfdPVKJkvfWv3Fo+dZny60it/WOjJLSAl/XpDE10tJcX63gS1TWdHLhI2/YCC6X+zvBWotuqAWL8/OtJrR5geWdAffCi3f/R9v15JRuzcawzvidgp+0AZ8kF41pOOHp5QTvrN3rlMjUTvaoXffMq2CWrHHoida9wZyPMnIfTl+8llCEKveiX/WWC7EI8FcwqIdt2J8o5mrddAEFK/bWNQccv5SM3GXLUUkfdeTHll1mqlzK3v9Xvkc593/TZudblKh26I9+gP1G3o3JToHsjL3jZ8vTCVMloBi/W7JUks5euUBorN5iMm+zCbisdOdRUbqepk9/ecAkJGVozuXwJBcD2mocm0HjQmD0vTWr30yWz9SIrdFP/1MFAwepHoGEzokzleqNqrQ5L1h7QTbbtAa3F0Sr3UY4TWrdSfCELlrpTyZgJ0YFNtf8r+n/WHHqY+DMQc3tGn977633bQhqXpS5OaNrZ43LQS10Z7kDHngGi3X1pcUaD8KEBw/0J0OKKv86tN9j4VKsSj+vha/OnblCs0Zj6kINTcPBJN5e/ZoQ+lxLJ1zgPIQaPSeF49tDW0omL98wdapAhCrFK/9CTuqdj7grzNp4HsFKu27qSftaJ3fe0+W2qod9+bXWr9xgitXma4g69pqCgW9xwulMy28QS/HevdyeQcEDJ7++j+wwVBeNpdFThXED0gCNq19UumPZvruvkCkL1DrQGPQcDNuXYIl+8DD/hgaFXtBd8AogHCjpL+o6BiHASnn2/yQaOyCel7QNO0/z8aNq7+uGljBYD+O+fJN4BUe2JHSb8LVVV8WhBgvhWdc7exAV57QNOwQRTVEfVLphs/zuV1gTb1+Q4Qslsr6VNUocqjBUG4FkAjm3Vhsfz0wFZN054pFuPjhJKZ1s/M56B+vgTkQD/sGn3J2Qq0XhC0VoDQTNM0F4ejcuBZLtLQA4IgRAFtEzRhnSZqCxqUTJvnZ1f5HhA/O49tC74HGJDgtzHXMA0PMCBpOI+zBt8DDEjw25hrmIYHGJA0nMdZg+8BBiT4bcw1TMMD/wNcnsuMGfVTkQAAAABJRU5ErkJggg==" vertex="1" parent="1">
          <mxGeometry x="500" y="280" width="50" height="50" as="geometry" />
        </mxCell>
        <mxCell id="C-2PJ58ULMP3kAUmGiD7-9" style="edgeStyle=orthogonalEdgeStyle;rounded=0;orthogonalLoop=1;jettySize=auto;html=1;entryX=0.5;entryY=0;entryDx=0;entryDy=0;" edge="1" parent="1" source="C-2PJ58ULMP3kAUmGiD7-7" target="C-2PJ58ULMP3kAUmGiD7-8">
          <mxGeometry relative="1" as="geometry" />
        </mxCell>
        <mxCell id="C-2PJ58ULMP3kAUmGiD7-11" value="设置一些请求头&lt;br&gt;参数" style="edgeLabel;html=1;align=center;verticalAlign=middle;resizable=0;points=[];" vertex="1" connectable="0" parent="C-2PJ58ULMP3kAUmGiD7-9">
          <mxGeometry x="-0.2872" y="-4" relative="1" as="geometry">
            <mxPoint as="offset" />
          </mxGeometry>
        </mxCell>
        <mxCell id="C-2PJ58ULMP3kAUmGiD7-7" value="url" style="rounded=1;whiteSpace=wrap;html=1;" vertex="1" parent="1">
          <mxGeometry x="220" y="160" width="50" height="40" as="geometry" />
        </mxCell>
        <mxCell id="C-2PJ58ULMP3kAUmGiD7-8" value="man管理类" style="rounded=1;whiteSpace=wrap;html=1;" vertex="1" parent="1">
          <mxGeometry x="195" y="460" width="100" height="40" as="geometry" />
        </mxCell>
        <mxCell id="C-2PJ58ULMP3kAUmGiD7-13" value="" style="shape=flexArrow;endArrow=classic;html=1;rounded=0;" edge="1" parent="1">
          <mxGeometry width="50" height="50" relative="1" as="geometry">
            <mxPoint x="320" y="480" as="sourcePoint" />
            <mxPoint x="500" y="480" as="targetPoint" />
          </mxGeometry>
        </mxCell>
        <mxCell id="C-2PJ58ULMP3kAUmGiD7-15" value="&lt;font style=&quot;font-size: 14px;&quot;&gt;post出去&lt;/font&gt;" style="text;html=1;align=center;verticalAlign=middle;resizable=0;points=[];autosize=1;strokeColor=none;fillColor=none;" vertex="1" parent="1">
          <mxGeometry x="360" y="450" width="80" height="30" as="geometry" />
        </mxCell>
        <mxCell id="C-2PJ58ULMP3kAUmGiD7-17" value="" style="shape=image;verticalLabelPosition=bottom;labelBackgroundColor=default;verticalAlign=top;aspect=fixed;imageAspect=0;image=data:image/png,iVBORw0KGgoAAAANSUhEUgAAAMgAAADICAYAAACtWK6eAAAAAXNSR0IArs4c6QAAEwdJREFUeF7tnXuYXHV5x7/v2U1I5FpDkp0z3KEajVABH0GxSCh5LChFkSC5zGRpC+XSPkL3zIZIH4jaSsiZNWCrAaQ0mbOJQB5BERUtaXgQUS5FUKFooahhzmyIARFDVnbnvPXELC4xmzm/3/xm5lze+Xff6+f9fffMnMvvEOQjBITAhARI2AgBITAxARGIrA4hsAcCIhBZHkJABCJrQAjoEZAjiB438coIARFIRgYtbeoREIHocROvjBAQgWRk0NKmHgERiB438coIARFIRgYtbeoREIHocROvjBAQgWRk0NKmHgERiB438coIARFIRgYtbeoREIHocROvjBAQgWRk0NKmHgERiB438coIARFIRgYtbeoREIHocROvjBAQgWRk0NKmHgERiB438coIARFIRgYtbeoREIHocROvjBAQgWRk0NKmHgERiB438coIARFIRgYtbeoREIHocROvjBAQgWRk0NKmHgERiB438coIARFIRgYtbeoREIHocROvjBAQgWRk0NKmHgERiB438coIARFIRgYtbeoREIHocROvjBAQgWRk0NKmHgERiB438coIARFIRgYtbeoREIHocROvjBAQgWRk0NKmHgERiB438coIARFIRgYtbeoREIHocROvjBAQgWRk0NKmHgERiB438coIARFIRgYtbeoREIHocROvjBAQgWRk0NKmHgERiB438coIARFIRgZtss1CqXYGISgycBIx9gHRw0z0bW9FbsBknjjEEoHEYQoJqWHhP2zdz5ry25sJmLfbkpl/QNQ9b40789mEtNSwTBFIQ0RiEBKY3+cfOInwHRBm7YkIM34DC3O8FfajaSAnAknDFNvQQ8Gpfp+IToiY6hVma65X7nkoon1szUQgsR1NfApb2D90YhcH31OpKC1HEhGIytQzalt0qstAdLVq+2kQiQhEdeoZtC86/moQFmu2/gqITqusyD2s6d9RNxFIR/EnI3nR8deDcI5utUk+kohAdKeeIb9mBRKiSqpIRCAZWui6rZoQSFJFkiiBLCr5HyXGBUT4gO6wm/DbwsAvCRhi4LsI8MBwUL9//cqDtzcRs+WuBWdoBjg4m4hnA5QHcQ6MPIgObnny3SdI1CngRAikuPT5aTxq3UnAn3doqBOmZeavEVsVa9+eu1cvo+G41LfIqZ1rgS8F4eS41DSujsT8cE+EQAqOv5EIp8Rw0ONL2sKMK72y/cVO1lnsqy0GBZ/u4BEiUvvM+CVNCmZVrjloaySHDhnFXiAFZ+hMouCuDvFRTsuMpwKm3rUDuUeUnZtwKDhDJxAF/w5gdhNh2urKzLd65fz8tiZVTBZ7gRQd/w4QPqLYV2fNGSNMuMpzc9cCxK0s5pRl3H3wttrVYCwlQlcrc7Ui9shrXT1fun7m5lbENhEz/gIp+TUAPSaabXsM5nu7rcln37Ji+iutyB3+NsMofRWgk1oRvx0xmXm+V87f2o5cOjmSIJCW/gfWgabiw+Af8cjkDwxeNz0UurHPwr7a2y3ibxDhUGNBOxAoAJUG3Vy5A6kjpYy9QAqO/zIR9ovUTVyNmDdxF73Pu9b+hYkSFy4ZOrorqG8EaJqJeB2OcVnFta/vcA0Tpk+AQKqPE9GfxRVg1LqY+ZnuSdZ7/+Oa3JaoPruz6+3zZwUW7gcwvZk4cfENmOYMlnP3xaWeXeuIv0BK1U8S6Kq4AlSpi5mfGK4H79G9uHj+0tr00VF+lIBDVPLG1ZaBzZ5rx/r3ZewFMm/Ji/tPrW9/EkT5uA5asa5VFde+RNFnh3nB8T9DhKU6vnH0CYBzBl37y3Gsbaym2AskLDR8YMfi4B4C9o8zzKi1EfFZa1bkla/tFEr+swQcETVPrO0YF1XK9o2xrhFAIgQSQuy9onZYvc6VON5uojxk5hdHRrrfrnr+v1jyE31Gb4wTB7jYG7BvUObWAYfECGSMTcEZOpzB7T21STyFGLOIeA5Af2VkTow7K2X77KixepfxlGBbrfkbI5l/CNC9TLSBGa9GyW8Rh78B50SxbWQTgC4ZdHOrGtnF5e+JE0inwe28cXIpAX3N1hIwfWywnLs9apxiyX8GwJFR7cfbMeO5MJ/OLTBFp3obiM7VyfsGn4AurQzkvtB0nDYGEIFowi46m49hqt9KwNs0QyA8izO8rfuo9V+Y8ZsoMQql6rUE6o9i+wYbxuD2ev1C3bNnRgSSQHGEDEUgyqvtDw69l710QDDp1bubudWDgeWea0c6MzX/45tnTpo8+qTSBUJmt1LOq4tqHJdiqXorQB/TRpVQcYhAtCf+B8d5l2+aOqXL+iERHaUVLryxsQtHRb3KXuyvvZsD3kCEfRrmY763Us7PbWjXwKBQqv4bgS7Vi8MXVNz8zXq+nfeSI4iBGSxeUpsd1INHiGiqXji+reLmz4vqW+j33wbGl/f09Y6Bga69c/9k4iGuQn+tj5jV75dK8JFjbBYikKirsoFdsVT929890qr9sFQAPn7QzT8WtZzwrFZ9W80h8CkMHEegUQA/ZsYTXYwbVw/YT0eN1cguPMUe1Pm5RnZv+HsKxCFfsZQm3ti4mc0NmPm/vHL+Lxpn6YxFwfHXEmFBlOxJO5W7p57kCBJl4hFtdmyQQMFPda/4E/h9a9z8dyOma6tZwRnamygI99qd8IlFZt5uEf5mjZv/UluLa2EyEYhhuIuc2vkW8S16Yfnuips/U8+39V7hCYm9urt7LXB4DWjc9RgeZtB99RHr0nXX9fxf6ytpXwYRSAtYF0vVB3RP/ZJF71hzbe7JFpRlLGT4nhDa67XjdnxHt3izt8L+H2PBYxZIBNKCgYRnmYjxlE5oBq/23Pz5Or7iY56ACMQ80x0Ri071FhApL3QGRsFW3iv3vNCi0iSsAgERiAIsFdPz+rfYk3mkquLzui3Tsko590ktX3EySkAEYhTnG4MVHf8GEP5OI8WWimvP0PATF8MERCCGgY4Pt6DPP7TbQnhWx1JNExAWDa6w16r6ib1ZAiIQszz/KJrujX7M/KBXzid2v6sWY21beBFIi1EX/7F6LLoo8i0k48sZRfex69wZj7e4RAm/BwIikDYsj2Kpei9AyreRMHCD59oXt6FESTEBARFIG5ZG0ameBaKvqKZixrap+2DGTcvsSI/GqsYX+8YERCCNGRmwYCqWar7OHsPMuLDTr1QwACCxIUQgbRpdwfHD3dc/o5ou3GzOK+ffqeon9mYIiEDMcGwYZcEVv/qT7vqrzwN4U0PjXQwC4ORB1/6Oqp/YN09ABNI8w8gRdB9dZWC959rN7yoSuVIxHCMgAmnjWlhc2nwkox5u3aP+GZ18UGXlgXq3rqhnE4+dBEQgbV4KBae6gYhOVU3L4E95bv5qVT+xb46ACKQ5fsrexb7aObB4vaojM17wyvZMVT+xb46ACKQ5fsre8+Zx19TD/M1Ke1vtzJKE3dCVgcTcQQTSgQEVS/6/APiEemreUHHzp6n7iYcuARGILrkm/Hbe5fsznRCj6H7LOnfG/+r4io86ARGIOjMjHoWS/3UCzlAOxvhspWw3vXG2ct6MOohAOjT4ouN/BIQ7VNMz49fD++Smr19Gr6n6ir06ARGIOjNjHgXH30wE5ScHGXS+5+ZWGytEAk1IQATSwcVRdGrLQbxEtQQG/8Rz87NU/cRenYAIRJ2ZMY/CEv8Q1PEzIvXXUATA6YOufY+xYiTQbgmIQDq8MHQfpgKwseLaylfkO9xu4tKLQDo8skVO7VyL+DadMijAu9YM2P+t4ys+0QiIQKJxaqlV0aluBdGbVZPIXb6qxNTtRSDqzIx7FEv+dQA+rhE4GA1wxLoB++cavuISgYAIJAKkVpuEb6jigH+sk4eBmzzX1tmcTidd5nxEIDEZeaHk30fA+5XLYYygPvlweVZEmVwkBxFIJEytN1rU73/YYtypk4mBtZ5rL9LxFZ89ExCBxGiFFEr+swQcoVNSUO965+BnZz6h4ys+ExMQgcRodRQc/wIi3KRVkqFXPkfNveMd8ZOH38IBPemVe7ZF9UuanQgkZhMrOH54Zf1QnbJafXV9Yf/Wg6zgt+HWRacRITdWY7g1EQFXV8r5r+rUHWcfEUjMptPU66SZN22vB29dv/Lg7abbKjhDZxIFd+0pLjO+6JXtC03n7mQ8EUgn6U+Qu5mjCFrwvMjO09APR9rTi/HNStlWf84lhnMISxKBGBrMvMtffvOUrm0Xg/giAh0UhmXw8wRaNdr1plXrlh/wUtRUTf0WCZMEdEZlIPfNqPka2RWd6n+CKPKjvsz4lle2/7JR3CT8XQRiYErF/tq7EQTfAtEBuw3H/GJAmDvo5iO/BqFQ8n9OwCF65fHWYHTSiYMrZ+jtwTUuae8VtcOCOj+nWgcD93iufbqqX9zsRSBNTmRxn388W9gIYN89fj8HXgbhPVFfmdzc+9YBZjwHWCc2+zLQQqn2fgLfp4UpBV+3RCBak/+908IlQ0d31ev3T3jk2CU2g3/kufljoqYsOtXHQHRsVPtd7Zj5ma5ua+7q5TmtDSLCeLr7eI3VkvQjiQhEc/UV+v13gXE3AUqbuansbbW4VD2JQQ9olrjDLdxwjolPV/l6Nz5foVSbR+Dbm6ohwV+3RCCKkw+vBXQFw0tBdImi69iCvcMr2x+N6lt0fA+Epm4jCV/EA8I/T90bn1N9GU+zR5BxR5JveK79wah9x8UukQJZ3OefXCdSfnNsk9APJ+IPEhB5ce8uHwO/8Fw78oXAna9NeErn5Tt//JUL24hwF5gfJKKf1rnxzihWeAMl8bIm2f3+nwOQOJEkRiC9pRd6Ah65kkFFIuxnYmCdiMHglzw3r/RwlO4r3DrRX8OcCfvhngiBhG+KZYu+TYQDGw4g5gbM/JBXzp+oWmbRqX5e92udaq6W2ydIJLEXyLzLN02d0t31tP41gZaPWykBg/7ec3OfV3LaaVxwqt8nohN0fGPnw3RVpZz7dOzq2qWg2Auk0OdfRBZWxR1klPrC/ayGR4Njde+VOq9/iz0pGHl0/I2CUfLG1aYe0Oy1A7nw91VsP/EXiONvJMIpsSUYuTDeGhBOGlyR/0lkl90YLuqvvtUK8KDOJg/N5G2FbxJeChR/gZT8XxGwfysG1MaYQ1aAOasH7KdN5FxUqh5HTOE/jsSerNjBgfH1Stn+kAkmrYoRe4EUSz63qvl2xGXgMbB1jlfuUb6faU/17bhQGWBDokXC/L1KOf/edsxBN0cCBFKtAmTrNthRP2a3Us73t6qG8D6wwMKG5B5h+a6Kmz+rVXxMxI29QAol/04CPmyi2bbFYK4GRPPb8W7zBZcNHdHdHdwOwvFt689QIgaWeq693FC4loSJv0CcoVOJgg0t6b41Qa+vD+911dp/nfbr1oTffVTdneLbWeOuueQsliH6hZJ/IwGxfpSTgYqFrk+tcWc+a6ht5TC9ff6suoXPETBX2bnNDsy43Cvb4Y6Ssf7E/ggyRq/g+CuJcFmcaIa3rxPTV4LRSasGr5tei0ttBWfoVCDoBXA2EfaOS13j6riy4trh5g+x/yRGICHJHYOnYDExH93McxJaU2HexMCm3/0eehyEHwSjk+4z8cSeVi0RnXqX8ZTglaE5ILwD4NkMHAni6WCa1sHbdhIjjhBzogQScV2ImUECzbyeYdcymMjxVuQGDJbX8lAikJYjTnYCUwJJojjkCJLstduW6k0IJKniEIG0ZYklO0mxNPQhIPiabhfM+IRXtq/R9e+0n3zF6vQEYp6/6Gw+BlTX2hQ7yUeOsbGIQGK+QONQXtGpvhR155axepN+5BCBxGHlJaSGQskvE9AXtdw0HDlEIFGnLXb46/4t+44EI08Q4fBGONIkDvmR3mja8vfXCSwovfCn3Tx6Mwgn7wFLoi4CRhmv/AaJQklsXicQPodCjEcA3grQtPAP4euowdaAV+55KG2oRCBpm6j0Y5SACMQoTgmWNgIikLRNVPoxSkAEYhSnBEsbARFI2iYq/RglIAIxilOCpY2ACCRtE5V+jBIQgRjFKcHSRkAEkraJSj9GCYhAjOKUYGkjIAJJ20SlH6MERCBGcUqwtBEQgaRtotKPUQIiEKM4JVjaCIhA0jZR6ccoARGIUZwSLG0ERCBpm6j0Y5SACMQoTgmWNgIikLRNVPoxSkAEYhSnBEsbARFI2iYq/RglIAIxilOCpY2ACCRtE5V+jBIQgRjFKcHSRkAEkraJSj9GCYhAjOKUYGkjIAJJ20SlH6MERCBGcUqwtBEQgaRtotKPUQIiEKM4JVjaCIhA0jZR6ccoARGIUZwSLG0ERCBpm6j0Y5SACMQoTgmWNgIikLRNVPoxSkAEYhSnBEsbARFI2iYq/RglIAIxilOCpY2ACCRtE5V+jBIQgRjFKcHSRkAEkraJSj9GCYhAjOKUYGkjIAJJ20SlH6MERCBGcUqwtBEQgaRtotKPUQIiEKM4JVjaCIhA0jZR6ccoARGIUZwSLG0ERCBpm6j0Y5SACMQoTgmWNgL/D5aXQBRnyGVbAAAAAElFTkSuQmCC;rotation=90;" vertex="1" parent="1">
          <mxGeometry x="207.5" y="510" width="75" height="75" as="geometry" />
        </mxCell>
        <mxCell id="C-2PJ58ULMP3kAUmGiD7-19" value="" style="endArrow=classic;html=1;rounded=0;" edge="1" parent="1">
          <mxGeometry width="50" height="50" relative="1" as="geometry">
            <mxPoint x="530" y="500" as="sourcePoint" />
            <mxPoint x="310" y="500" as="targetPoint" />
          </mxGeometry>
        </mxCell>
        <mxCell id="C-2PJ58ULMP3kAUmGiD7-20" value="reply" style="edgeLabel;html=1;align=center;verticalAlign=middle;resizable=0;points=[];" vertex="1" connectable="0" parent="C-2PJ58ULMP3kAUmGiD7-19">
          <mxGeometry x="0.4455" y="2" relative="1" as="geometry">
            <mxPoint as="offset" />
          </mxGeometry>
        </mxCell>
        <mxCell id="C-2PJ58ULMP3kAUmGiD7-21" value="" style="rounded=1;whiteSpace=wrap;html=1;fillColor=none;dashed=1;" vertex="1" parent="1">
          <mxGeometry x="150" y="600" width="290" height="280" as="geometry" />
        </mxCell>
        <mxCell id="C-2PJ58ULMP3kAUmGiD7-22" value="" style="shape=image;verticalLabelPosition=bottom;labelBackgroundColor=default;verticalAlign=top;aspect=fixed;imageAspect=0;image=data:image/png,iVBORw0KGgoAAAANSUhEUgAAAMgAAADICAYAAACtWK6eAAAAAXNSR0IArs4c6QAAFmpJREFUeF7tnQmUXUWZx39fd8IAGgiLICQssoggMCwiYRGOZlhEEGSXRQSBiCHd9zWbAkLDiLJIv9chxGENywEcEJRFFlE2gbCIMIMIYQcJq2ASthHTr+bd2y8hCf36bnXf3b57Tg7hvKqvvvp/9UtV3apbJeijCqgCLRUQ1UYVUAVaK6CAaOtQBYZRQAHR5qEKKCDaBlSBaApoDxJNN81VEgUUkJIEWqsZTQEFJJpumqskCiggJQm0VjOaAgpINN1C5TLTWJx3WJURjKHOWIQxmPn/XcbXmGAwvAm8AszE8Aqd3p+ZciQv+ebXBJEVUEAiS7dwRnMeS/I+69HBesC6wPrA6sBYYLSlYlqZeQPDSwjPA08AT9LJEzKJpxIut/DmFZCIITa9dLA0mwM7IOyIYTOEjojmkslmeB/hTgy3YrhNeng2mYKKa1UBCRFbU2NFYGfg68B2wFIhsmch6XPALU1g7pAePsyCU1n2QQHxiY6psXUTiJ2AjbIczNC+GX7nATOC62USL4TOX4IMCsgiQTZn8SlGsBvwTYTt2zB/yEozc+crtyLcIN3cmRWn0vZDAWlGwPSzNoYu4Ds5HDrZbkczMJzLR1wix/GubeN5sld6QEwfeyNMQPhangLXJl8/AC5r9KI1cZjRpjIzVUwpATFVRiMchmEiwmqZikh2nfkDMJlubhR3XaYkT6kAMZNZigFOReguSXyTqOYLGH4sFa5IwnjWbJYGEFOjq7EefTLCslkLQtOfhzFMA14ENgCOQlgho766bj1MB13SxQMZ9jG2a4UHxFTZEzgN4fOx1UrKgOE6qbDHgua9YSA8loMh4C/p5PiiviYuLCCm5i3o/Wcu1i5GspJM5PVF+TP97IvhqqS4tGrXcD6GU6WHmVbtpmyscICYKps0hiZTGwtg7jaQ7D+Gp6XCOkM5aqqshPBq9iuxgIeGfgw/KsoqfWEAMecxkg85CcMPEUbkplEZpkuFLVv5a2rUgbzF6UWE/aWb+3MThxaO5k34IathamyI4UqEL+YuIMUExA2D+yr4XOocm+feJNeAmKvp5DVOpM6Jueo1FpqNF7IH+biGhucx7CM9/Cl3/3jlsOuer7HpYy06uBLYLI/Cf1yRggMyWNEBDKczm17pZW6e4pXLHsRUvRXwKXkSuqWv/kOsIq1aP0oHe0kX7rb7XDy5AsT0shijvcW0/XKhbhAn/QHJ4yR9uJrPoc5e0uNttc/8kxtAzDmszFxvO7a7ylycp3yADE7gDSdLxVunyvSTC0BMP1tiuAnwP+Ag03IP6dz94rBVK7dNrdAbA38jDt/KcsgyD4jp9773/jWweJaFjOxbOXuQj+UyTKeTHaWLOZE1TDBjpgEx/RzcOCbnwswdhmAzIGUHZFDLGdQZn8VtKpkFxNS88emJNttiRm2VeYi1YEhepZPxWTuqKJOAmBrnNw5IOyyjDdquW9qDLKjn29T5qvTwuF2Ro1vLFCDGIPR7i3/7Rq9SznIqIIsGzJ2LbC8OD2YhktkCpMbVjZMB98qCMG30QYdYnxTb/RZ+B3G4t41xGLKozABiqlyGcGDagrS9fO1Bhpbc8C7C1uLwv22PyQIFZgIQU+Mc4Mg0hUitbAVkOOnfRthCunkmrfikDkjje4eTGpsmT0lLgNTL9QekSHuxwstteA1hnDi8HD5z/BypAmKqHIJwUfxq5NiCPyBF24sVJVhPNQ7f3kIqzIqSOU6e1AAxNXbAcHOhFwGDREYBCaKSm+YBlmAbmcC/gmawkS4VQEyNzTHcibCEjUrk3Ia+xQoawCFOfwmaNWq6tgNiJvMZBvhLxs98iqpn+Hzag4TV7GRxODVspqjp2wqId+nMaO5rnCI+LqrDhcungIQNqbucvJ104x6FmvjTXkBq9IN3gro+8xRQQMK3BcNs6mwgR/G38JnD5WgbIKbK7o2Pna4N514pUuscJFqYHxGHL0XLGjxXWwAxP2d5RvB0QT94Cq72UCm1B4mun9Ar3cmuobUHkBq3epdd6vNJBRSQ6K3CMBdh0yS3oyQOiKlyaONe8Auiq1DwnApIvAAbnmRJ/j2p9ZFEAfEOWhjwbib6dDwVCpxbAYkfXMPPpMLx8Q190kKygNT4PTA+CccLY1MBiR9Kd6hl2Eh6eCK+sYUtJAaIqbEP8EvbDhfOngJiK6SJvNVKBJDm5S/PNE4/XN5W7QtsR1/z2gquoUsq3qcT1p5kAKnxC+D71rwssiHtQexF1/3IaoA15Gj+bsuodUBMP+tjvK/ArNu2VelM2VFAbIfjMnE4yJZR643YVHkYSX6F05YAqdtRQOyHoM7m0sNDNgxbBcRUORDxLp7XJ6gC/oCU+4vCoDounO4xcdg4WtaE3mJ5O3WXxr16axUbjpXGhj8g+kVhlMZg2EMqXBcl64J5rPUgpo/D6eC8uA6VLr8CklTI/ypO/Cv5rADSvEDT/aj+s0nVtrB2FZDkQlv3rn5zz1qL/NgBpMYPvAsb9QmvgD8gOgcJr+q8HDPE4QvRs1t4Fds8LvQVYOU4jpQ2rz8gOgeJ1zh2FYcbopqI3YOYfvbDcEVUB0qfTwFJtgkY7pMKW0ctJD4gNe8k7vWjOlD6fApI8k2gzmZRr6GOBYipsR3k4zLG5KMQsQR/QHQOElHa+dliHBcUF5BfAXvE9b/U+f0B0TlI3AZiqDPAilH2aEUGxExhOebyGjAyrv+lzq+AtCf8huOkwplhC4sOSI2jGl8K/jxsgZp+EQUUkHY1iafEYd2whcUB5MnGB1Gx3jGHdbag6fV7kHYF1rClVJgeprhIgJgqmyA8EqYgTdtCAe1B2tk0porDxDAFRgXkDIRjwxSkaRWQ1NuA4Z3GF4fLhfEjKiAv667dMDIPk1Z7EEtCBjRjGC8V7giYOvxXf2Yy46iHG8cFdaaU6RSQ9obdcL5UmBC00NA9iKlxOnBc0AI0nY8CCkh7m4jhTamwYtBCowDyKLBR0AI0nQKSuTZQZ0Pp8bZI+T6hAGkeQv2Wr1VNEFwB7UGCa2UrpeEYqQRbwwsHiH5zbitEH9tRQOxr6m/xdnHY3j9ZyO9BTI3LgQOCGNY0ARXwB0Q3KwaUMkwycYK9oArXg9S8vVf6WW2YSPil9QdENyv6aRjl9zrbSA9/9MsaGBBTZXWEF/wM6u8hFVBAQgpmLfkJ4vBTP2vBAanxHeBSP4P6e0gFFJCQgllLfps47OhnLTggVS5AONTPoP4eWgHdrBhaMisZ3hOHUX6WwgDyCMImfgb195AKaA8SUjCLyeusLT08O5zFMID8E2Exi+6pKVcBBSS9diDsJt1cHxsQ08/aGO+WWn1sK6CA2FY0jD3fiXqgHsRU2Q3h12FK1rQBFVBAAgqVSLIrxWH/+D1Izbsg8bREXCy7UX9AdKEwuTbyaONQuWHn1cF6kBoXAwcn52eJLfsDoguFSTUPw4eNgxyWjN+DVLkLYduk/Cy1XQUk3fDXWU56eKeVE0F7kJeAVdOtSUFLV0DSDazwJelufb6CLyDexTijGUi3FgUuXQFJN7iGvaSCewDikI8/IDWv53B7EH2SUEABSULV4DZ9ro72B2QyG1Pnz8FL1JShFFBAQsllPbHhFKnQG6cH0QOqrUdlAYMKSJLq+ts2nCMVuqID0s++GK7yL0lTRFJAAYkkm8VMwy4W+g+xqhyBMNWiQ2pqYQV0N2+aLcJwi1TYKXoPUmUiwpQ061Dosv17EF1JT7IBGB6SCptHB0Svd04yPO5u3scb93lv2KoQU2Om3v+YYAgMz0qFtaMD0s9BGC5J0MWym35dHFYaBpALge+VXaQE6z9LHJaJA4he0plgdDzTnYyRSbw6VDGmykoI9zU+d/5c0m6U1f5wJ5wEmaTvjnBtWcVrU70nitP6RYiZzFjq3AWs2SZ/ylWMYRmpMGuoSgcB5BsIN5VLsbbX9gFx2GK4Uk0fY+jgXmD1tntX9AI7WFq6mBMNkH7GY/h90TVKvX4BzmnyepIB7kZYI3V/C+RAvCFWjW2AuwukR1ar8hwj2Ugm8t6wPcngcOsenZPYC2M8QPQ+EHuR8Ld0rTjs6ZdMexI/hcL9Hg+QmveO/n/CFampYyhwkTj+548pJDEUXjjrP8Rh2VbW/CfpZ7MKnbxszR015K+A4WKp+K996MTdX8oAKZ4Th7WiA3IWn2Lk8OPiAE5okrAKKCRhFYuWPu5WE7dUU+NDYPFoHmiuyAooJJGlC5wx7mZFD5AqryKtt0MEdkYThldAIQmvWZgchsul4h3MPuTjOwdp9iB/AjYNU66mtaiAQmJRzE+YOkMcfhgPkCrXIP6vH5OsReltKyTJNIE6E6SH8+MBUuNM4JhkPFSrgRVQSAJLFThhne2kp/VOkWBDLP2qMLDeiSdUSOxKXGdN6eH5eD1IH9vTwW12PVNrMRQIvphY9+7h0w2OrSbhPpd5ButBBneSvhIjoJrVtgLak8RX1OdrTreAQIB4b7KqvI20XpKP761aCK2AQhJasoUyGK6QyvDXmgcHpObt6HV39uqTJQUUkujRMBzXON3dfQHV8gkDyDnAkdG90ZyJKRAOkgeAsYn5kifDwtelm1vtAFLluwjT8lT/UvkaFJIprMZc78tEhcTn6oNwc5Cz+TydzChVo8tbZRWS4BEzPC0V1vHLEHiI1Zyov9U4RG55P6P6e4oKKCRBxZ8mDof4JQ4LyA0Iu/gZ1d9TVkAhCRKAQ8XhIr+EYQE5FuEMP6P6ewYUMFwoFQ7z88RUvUXEexHG+KUt1O8DrCNH+V9tHhaQTRo9yCOFEqrIldGepFV0X2n0HqsECX0oQLx5SI1/AKODGNc0GVBAIRkqCBeIw+FBohMekCpXInw7iHFNkxEFFJJFA7GnOMFOC40CiK6HZKTdh3JDIZknl3GvpW11kuKimoYHZCrL8BFveUcu65MvBRQS97qJO6TC+KCBCw2INw+pcjvCfwQtRNNlSAGF5HBxuCBoRKICcmjjtWDgQoI6o+napEB5IRnAsHyrk9yHUj8aIDrMalNLTrCYMkLic8SPNUCawyxdVU+w/bbJdKDXnaaPNRDuyf1iouGAxnVrV4TRNlIP4gHSz7cwXBemME2bQQXK0pMYZjObFaSXj8JEITogvYxgtHdt2GfCFKhpM6hAGSAxnCuV8N8zRQakOcw6C+HoDIZcXQqrQNEhETaQbv4SVpZ4gOg3ImH1znr6YHOSyazZvOkqLxscHxaHL0cRPxYgXi9S40Zg5yiFa54MKlDEnqTOPtLD1VHUjg9IH1+hw7sSTJ+iKFAsSF6kmzVEMFHCExuQZi/yELBZFAc0T0YVKAokwhHSzX9FVdkOIP3siuE3UZ3QfJlVIPicpM59wIoZq8kb4vDZOD5ZAaTZi/wZ2DiOM5o3gwoE7UnciXvdOy0lVoO0rEB34/7ByXFs2gOkj13o4IY4zmjejCqQT0heZwlWlQn8K46q1gDRXiROGHKQN2+QxJx7zIuIbUC2A36Xg3Cri9EUCDYn6WMtOrzhVjpzEsPzUmHNaFVcOJdVQJq9yPXAN204pzYyqEA+epJdxOEmG+rZB2TwXvVngH+z4aDayKAChl9IhR/4eWbSmLhH2NI+XD2sA+L1IlVORfixn4D6e44VyCYk/6SDtaTL3l02yQDSxxJ08Fe92SjHAARzfao4TPRLato1JxF6pZtT/PwJ83sigHi9yGS2pc5dYZzRtDlUICs9ieFZxvAF2ZsBmyomBkhzwn4ptL6k3WZF1FaKCqQPibvPanNxeNi2CskC0seydHjnny5n23G1lzEF0oVkijhMSkKRRAHxehHdp5VE3LJpMx1IXmYJ1pUJfJCEKIkD0nyrpceVJhG9LNpsLyQGw1ZSYXpSUrQHkDMYxWI8i7BCUhVRuxlSoF2QGM6UCsclWfO2ANKcsO8Aw1+YmGRF1XbbFQj2Cnjws233So1Ph/IwwB3noey1SNw2QJpDrZ8i/MiG42ojFwoEg6Sfbgy1EDWaQ51NpYdnQ+SJlLS9gBiEfm9tRO9bjxSuHGYKMNwyg9uTXg5cO+Eb0s3NgdPHSNhWQLxeZPDYUvf4lZVj+K1Z86SADyTmHFZmgJkBq/QTcdq3jantgDSHWu5Vbn8ElgwoiibLvwIth1umyp4I1wSo4g3isGuAdNaSpAKIB0k/O2K4xVpN1FD2FRiiJzHnsTQf8ijwOZ8KPECdr0kPH7azoqkB0oTkIAyXtLPCWlbqCrjD6wsw3icRGwE9CMv7eDUDw7gw1xbYqmWqgDSHWycg/MRWhdRO4RR4nRGMkyN5KY2apQ5IE5IaQncaAmiZGVbA8E5jGL55O17ntlIhE4B4kNSYBnw3w+FS19qrwHvU2VJ6eLy9xS5cWmYAafYk/42wd5qCaNkZUMDwfuMt53hxeDBtb7IFiLuQWONyhP3TFkbLT02BWcD2SXzbEaVGmQJkXgVMlakIR0SpkObJsQKGNxG2EYcZWalFJgFpzklOA47PilDqR8IKGP5GJ1+VLp5LuKRQ5jMLiAdJP9/HMBXItJ+hFNfEn1TA8ERzzvFG1uTJfMMzNe8QOvfyEz1nK2utx4Y/hrtZjJ1lIu/ZMGfbRuYBab7d2qpx/8hvEZa2LYDaS1WBK8XJ9guZXADiQTJ4V7d7N/sXUw2pFm5DgQEMx0uFM20YS9JGbgDxIJnG4sziCoTdkxRFbSeogLs6Djsn+R25Te9zBci8ipsqRyOcZVMItdUGBQzTMewlPYG//WiDU8MXkUtAmm+41qeOe1rKBqmrqA4Mr4Dho0aCXmZzhvRSz5NcuQXEg+Q8RvKBtxPY7VE68iR8aXw1PNk4p3lv6fa+Is3dk2tA5g+5JrMxA1zYmMRvkrsIFNVhdz8VnMZszpZerwfJ5VMIQLzeZPBAiMMxuCenLJvLaBTH6WvppEsm8Wreq1QYQOb3JlNYjrm421Qm5D04OfR/BsJE6eYPOfR9SJcLB8gCw671qHOxe+p3UYKV4XrMamwG6mUlpti+fiDtOhcWkPmgVNkf8S5VsXKpY9oBy1z5hnMxnCQ93vpG4Z7CA+LNT66mk5kciHCigmKhDQ++tr0Iw2l5WtOIUvNSALKgMKbKIY3/70VYJYpgmocp1Dm96GDMi3PpAFmgR9kP4QRgHW30PgoY7yyq8xF+Jg6Z25KeZPxKCcgiPcqBwPcQtk1S6JzafgXDpXTSL128ldM6xHK79IDMn8wPng/rwnIAsH4sVfOd2f0m/Bo6uIJJ3COCe/9faR8FZIjQmz42aNytuB+GbyOsVvjWMTiEurEx3LyK2dyc55Vv27FSQPyG3zW2BvbAsDPCWrYDkKK9OcDtCDfyEb+SY7ytIfosooACEqJJmMmsyQA7Id7B219BGBUiexaSutcku6vcvxWHe7PgUNZ9UEBiRKg5FBsHbOkekYmwbgxzdrMa/o5wPzCdDqYzigflYP7PbiHFt6aAWIxx8yj/QWDgyxjvM+GxbbgHxb2dyf3zGMJ9jV7uIenheYtVK60pBaQNoTdVRtPBWOreLb+jgaXAG54t1RymjcIwav7fYS6G2Y2rAdx5whzE+/u7GO/PHDqZw4DXQ8yUCq+1oQqlLUIBKW3oteJBFFBAgqikaUqrgAJS2tBrxYMooIAEUUnTlFYBBaS0odeKB1FAAQmikqYprQL/DwhFBzIgWPz6AAAAAElFTkSuQmCC;" vertex="1" parent="1">
          <mxGeometry x="230" y="620" width="40" height="40" as="geometry" />
        </mxCell>
        <mxCell id="C-2PJ58ULMP3kAUmGiD7-25" value="" style="edgeStyle=orthogonalEdgeStyle;rounded=0;orthogonalLoop=1;jettySize=auto;html=1;" edge="1" parent="1" source="C-2PJ58ULMP3kAUmGiD7-23" target="C-2PJ58ULMP3kAUmGiD7-24">
          <mxGeometry relative="1" as="geometry" />
        </mxCell>
        <mxCell id="C-2PJ58ULMP3kAUmGiD7-26" value="发送这个信号" style="edgeLabel;html=1;align=center;verticalAlign=middle;resizable=0;points=[];" vertex="1" connectable="0" parent="C-2PJ58ULMP3kAUmGiD7-25">
          <mxGeometry x="0.046" y="3" relative="1" as="geometry">
            <mxPoint as="offset" />
          </mxGeometry>
        </mxCell>
        <mxCell id="C-2PJ58ULMP3kAUmGiD7-23" value="&amp;amp;QNetworkReply&lt;br&gt;::finished," style="rounded=1;whiteSpace=wrap;html=1;" vertex="1" parent="1">
          <mxGeometry x="282.5" y="620" width="100" height="40" as="geometry" />
        </mxCell>
        <mxCell id="C-2PJ58ULMP3kAUmGiD7-31" value="" style="edgeStyle=orthogonalEdgeStyle;rounded=0;orthogonalLoop=1;jettySize=auto;html=1;" edge="1" parent="1" source="C-2PJ58ULMP3kAUmGiD7-24" target="C-2PJ58ULMP3kAUmGiD7-30">
          <mxGeometry relative="1" as="geometry" />
        </mxCell>
        <mxCell id="C-2PJ58ULMP3kAUmGiD7-24" value="sig_http_finish" style="rounded=1;whiteSpace=wrap;html=1;" vertex="1" parent="1">
          <mxGeometry x="288.75" y="720" width="87.5" height="40" as="geometry" />
        </mxCell>
        <mxCell id="C-2PJ58ULMP3kAUmGiD7-27" value="res" style="rounded=1;whiteSpace=wrap;html=1;" vertex="1" parent="1">
          <mxGeometry x="178" y="660" width="52" height="40" as="geometry" />
        </mxCell>
        <mxCell id="C-2PJ58ULMP3kAUmGiD7-28" value="" style="endArrow=classic;html=1;rounded=0;entryX=0;entryY=0.75;entryDx=0;entryDy=0;" edge="1" parent="1" target="C-2PJ58ULMP3kAUmGiD7-24">
          <mxGeometry width="50" height="50" relative="1" as="geometry">
            <mxPoint x="230" y="690" as="sourcePoint" />
            <mxPoint x="280" y="640" as="targetPoint" />
          </mxGeometry>
        </mxCell>
        <mxCell id="C-2PJ58ULMP3kAUmGiD7-29" value="connect事件" style="text;html=1;align=center;verticalAlign=middle;resizable=0;points=[];autosize=1;strokeColor=none;fillColor=none;" vertex="1" parent="1">
          <mxGeometry x="250" y="850" width="90" height="30" as="geometry" />
        </mxCell>
        <mxCell id="C-2PJ58ULMP3kAUmGiD7-30" value="延时删除" style="rounded=1;whiteSpace=wrap;html=1;" vertex="1" parent="1">
          <mxGeometry x="288.75" y="800" width="87.5" height="40" as="geometry" />
        </mxCell>
        <mxCell id="C-2PJ58ULMP3kAUmGiD7-32" value="" style="rounded=1;whiteSpace=wrap;html=1;fillColor=none;dashed=1;" vertex="1" parent="1">
          <mxGeometry x="580" y="600" width="290" height="500" as="geometry" />
        </mxCell>
        <mxCell id="C-2PJ58ULMP3kAUmGiD7-33" value="" style="shape=image;verticalLabelPosition=bottom;labelBackgroundColor=default;verticalAlign=top;aspect=fixed;imageAspect=0;image=data:image/png,iVBORw0KGgoAAAANSUhEUgAAAMgAAADICAYAAACtWK6eAAAAAXNSR0IArs4c6QAAFmpJREFUeF7tnQmUXUWZx39fd8IAGgiLICQssoggMCwiYRGOZlhEEGSXRQSBiCHd9zWbAkLDiLJIv9chxGENywEcEJRFFlE2gbCIMIMIYQcJq2ASthHTr+bd2y8hCf36bnXf3b57Tg7hvKqvvvp/9UtV3apbJeijCqgCLRUQ1UYVUAVaK6CAaOtQBYZRQAHR5qEKKCDaBlSBaApoDxJNN81VEgUUkJIEWqsZTQEFJJpumqskCiggJQm0VjOaAgpINN1C5TLTWJx3WJURjKHOWIQxmPn/XcbXmGAwvAm8AszE8Aqd3p+ZciQv+ebXBJEVUEAiS7dwRnMeS/I+69HBesC6wPrA6sBYYLSlYlqZeQPDSwjPA08AT9LJEzKJpxIut/DmFZCIITa9dLA0mwM7IOyIYTOEjojmkslmeB/hTgy3YrhNeng2mYKKa1UBCRFbU2NFYGfg68B2wFIhsmch6XPALU1g7pAePsyCU1n2QQHxiY6psXUTiJ2AjbIczNC+GX7nATOC62USL4TOX4IMCsgiQTZn8SlGsBvwTYTt2zB/yEozc+crtyLcIN3cmRWn0vZDAWlGwPSzNoYu4Ds5HDrZbkczMJzLR1wix/GubeN5sld6QEwfeyNMQPhangLXJl8/AC5r9KI1cZjRpjIzVUwpATFVRiMchmEiwmqZikh2nfkDMJlubhR3XaYkT6kAMZNZigFOReguSXyTqOYLGH4sFa5IwnjWbJYGEFOjq7EefTLCslkLQtOfhzFMA14ENgCOQlgho766bj1MB13SxQMZ9jG2a4UHxFTZEzgN4fOx1UrKgOE6qbDHgua9YSA8loMh4C/p5PiiviYuLCCm5i3o/Wcu1i5GspJM5PVF+TP97IvhqqS4tGrXcD6GU6WHmVbtpmyscICYKps0hiZTGwtg7jaQ7D+Gp6XCOkM5aqqshPBq9iuxgIeGfgw/KsoqfWEAMecxkg85CcMPEUbkplEZpkuFLVv5a2rUgbzF6UWE/aWb+3MThxaO5k34IathamyI4UqEL+YuIMUExA2D+yr4XOocm+feJNeAmKvp5DVOpM6Jueo1FpqNF7IH+biGhucx7CM9/Cl3/3jlsOuer7HpYy06uBLYLI/Cf1yRggMyWNEBDKczm17pZW6e4pXLHsRUvRXwKXkSuqWv/kOsIq1aP0oHe0kX7rb7XDy5AsT0shijvcW0/XKhbhAn/QHJ4yR9uJrPoc5e0uNttc/8kxtAzDmszFxvO7a7ylycp3yADE7gDSdLxVunyvSTC0BMP1tiuAnwP+Ag03IP6dz94rBVK7dNrdAbA38jDt/KcsgyD4jp9773/jWweJaFjOxbOXuQj+UyTKeTHaWLOZE1TDBjpgEx/RzcOCbnwswdhmAzIGUHZFDLGdQZn8VtKpkFxNS88emJNttiRm2VeYi1YEhepZPxWTuqKJOAmBrnNw5IOyyjDdquW9qDLKjn29T5qvTwuF2Ro1vLFCDGIPR7i3/7Rq9SznIqIIsGzJ2LbC8OD2YhktkCpMbVjZMB98qCMG30QYdYnxTb/RZ+B3G4t41xGLKozABiqlyGcGDagrS9fO1Bhpbc8C7C1uLwv22PyQIFZgIQU+Mc4Mg0hUitbAVkOOnfRthCunkmrfikDkjje4eTGpsmT0lLgNTL9QekSHuxwstteA1hnDi8HD5z/BypAmKqHIJwUfxq5NiCPyBF24sVJVhPNQ7f3kIqzIqSOU6e1AAxNXbAcHOhFwGDREYBCaKSm+YBlmAbmcC/gmawkS4VQEyNzTHcibCEjUrk3Ia+xQoawCFOfwmaNWq6tgNiJvMZBvhLxs98iqpn+Hzag4TV7GRxODVspqjp2wqId+nMaO5rnCI+LqrDhcungIQNqbucvJ104x6FmvjTXkBq9IN3gro+8xRQQMK3BcNs6mwgR/G38JnD5WgbIKbK7o2Pna4N514pUuscJFqYHxGHL0XLGjxXWwAxP2d5RvB0QT94Cq72UCm1B4mun9Ar3cmuobUHkBq3epdd6vNJBRSQ6K3CMBdh0yS3oyQOiKlyaONe8Auiq1DwnApIvAAbnmRJ/j2p9ZFEAfEOWhjwbib6dDwVCpxbAYkfXMPPpMLx8Q190kKygNT4PTA+CccLY1MBiR9Kd6hl2Eh6eCK+sYUtJAaIqbEP8EvbDhfOngJiK6SJvNVKBJDm5S/PNE4/XN5W7QtsR1/z2gquoUsq3qcT1p5kAKnxC+D71rwssiHtQexF1/3IaoA15Gj+bsuodUBMP+tjvK/ArNu2VelM2VFAbIfjMnE4yJZR643YVHkYSX6F05YAqdtRQOyHoM7m0sNDNgxbBcRUORDxLp7XJ6gC/oCU+4vCoDounO4xcdg4WtaE3mJ5O3WXxr16axUbjpXGhj8g+kVhlMZg2EMqXBcl64J5rPUgpo/D6eC8uA6VLr8CklTI/ypO/Cv5rADSvEDT/aj+s0nVtrB2FZDkQlv3rn5zz1qL/NgBpMYPvAsb9QmvgD8gOgcJr+q8HDPE4QvRs1t4Fds8LvQVYOU4jpQ2rz8gOgeJ1zh2FYcbopqI3YOYfvbDcEVUB0qfTwFJtgkY7pMKW0ctJD4gNe8k7vWjOlD6fApI8k2gzmZRr6GOBYipsR3k4zLG5KMQsQR/QHQOElHa+dliHBcUF5BfAXvE9b/U+f0B0TlI3AZiqDPAilH2aEUGxExhOebyGjAyrv+lzq+AtCf8huOkwplhC4sOSI2jGl8K/jxsgZp+EQUUkHY1iafEYd2whcUB5MnGB1Gx3jGHdbag6fV7kHYF1rClVJgeprhIgJgqmyA8EqYgTdtCAe1B2tk0porDxDAFRgXkDIRjwxSkaRWQ1NuA4Z3GF4fLhfEjKiAv667dMDIPk1Z7EEtCBjRjGC8V7giYOvxXf2Yy46iHG8cFdaaU6RSQ9obdcL5UmBC00NA9iKlxOnBc0AI0nY8CCkh7m4jhTamwYtBCowDyKLBR0AI0nQKSuTZQZ0Pp8bZI+T6hAGkeQv2Wr1VNEFwB7UGCa2UrpeEYqQRbwwsHiH5zbitEH9tRQOxr6m/xdnHY3j9ZyO9BTI3LgQOCGNY0ARXwB0Q3KwaUMkwycYK9oArXg9S8vVf6WW2YSPil9QdENyv6aRjl9zrbSA9/9MsaGBBTZXWEF/wM6u8hFVBAQgpmLfkJ4vBTP2vBAanxHeBSP4P6e0gFFJCQgllLfps47OhnLTggVS5AONTPoP4eWgHdrBhaMisZ3hOHUX6WwgDyCMImfgb195AKaA8SUjCLyeusLT08O5zFMID8E2Exi+6pKVcBBSS9diDsJt1cHxsQ08/aGO+WWn1sK6CA2FY0jD3fiXqgHsRU2Q3h12FK1rQBFVBAAgqVSLIrxWH/+D1Izbsg8bREXCy7UX9AdKEwuTbyaONQuWHn1cF6kBoXAwcn52eJLfsDoguFSTUPw4eNgxyWjN+DVLkLYduk/Cy1XQUk3fDXWU56eKeVE0F7kJeAVdOtSUFLV0DSDazwJelufb6CLyDexTijGUi3FgUuXQFJN7iGvaSCewDikI8/IDWv53B7EH2SUEABSULV4DZ9ro72B2QyG1Pnz8FL1JShFFBAQsllPbHhFKnQG6cH0QOqrUdlAYMKSJLq+ts2nCMVuqID0s++GK7yL0lTRFJAAYkkm8VMwy4W+g+xqhyBMNWiQ2pqYQV0N2+aLcJwi1TYKXoPUmUiwpQ061Dosv17EF1JT7IBGB6SCptHB0Svd04yPO5u3scb93lv2KoQU2Om3v+YYAgMz0qFtaMD0s9BGC5J0MWym35dHFYaBpALge+VXaQE6z9LHJaJA4he0plgdDzTnYyRSbw6VDGmykoI9zU+d/5c0m6U1f5wJ5wEmaTvjnBtWcVrU70nitP6RYiZzFjq3AWs2SZ/ylWMYRmpMGuoSgcB5BsIN5VLsbbX9gFx2GK4Uk0fY+jgXmD1tntX9AI7WFq6mBMNkH7GY/h90TVKvX4BzmnyepIB7kZYI3V/C+RAvCFWjW2AuwukR1ar8hwj2Ugm8t6wPcngcOsenZPYC2M8QPQ+EHuR8Ld0rTjs6ZdMexI/hcL9Hg+QmveO/n/CFampYyhwkTj+548pJDEUXjjrP8Rh2VbW/CfpZ7MKnbxszR015K+A4WKp+K996MTdX8oAKZ4Th7WiA3IWn2Lk8OPiAE5okrAKKCRhFYuWPu5WE7dUU+NDYPFoHmiuyAooJJGlC5wx7mZFD5AqryKtt0MEdkYThldAIQmvWZgchsul4h3MPuTjOwdp9iB/AjYNU66mtaiAQmJRzE+YOkMcfhgPkCrXIP6vH5OsReltKyTJNIE6E6SH8+MBUuNM4JhkPFSrgRVQSAJLFThhne2kp/VOkWBDLP2qMLDeiSdUSOxKXGdN6eH5eD1IH9vTwW12PVNrMRQIvphY9+7h0w2OrSbhPpd5ButBBneSvhIjoJrVtgLak8RX1OdrTreAQIB4b7KqvI20XpKP761aCK2AQhJasoUyGK6QyvDXmgcHpObt6HV39uqTJQUUkujRMBzXON3dfQHV8gkDyDnAkdG90ZyJKRAOkgeAsYn5kifDwtelm1vtAFLluwjT8lT/UvkaFJIprMZc78tEhcTn6oNwc5Cz+TydzChVo8tbZRWS4BEzPC0V1vHLEHiI1Zyov9U4RG55P6P6e4oKKCRBxZ8mDof4JQ4LyA0Iu/gZ1d9TVkAhCRKAQ8XhIr+EYQE5FuEMP6P6ewYUMFwoFQ7z88RUvUXEexHG+KUt1O8DrCNH+V9tHhaQTRo9yCOFEqrIldGepFV0X2n0HqsECX0oQLx5SI1/AKODGNc0GVBAIRkqCBeIw+FBohMekCpXInw7iHFNkxEFFJJFA7GnOMFOC40CiK6HZKTdh3JDIZknl3GvpW11kuKimoYHZCrL8BFveUcu65MvBRQS97qJO6TC+KCBCw2INw+pcjvCfwQtRNNlSAGF5HBxuCBoRKICcmjjtWDgQoI6o+napEB5IRnAsHyrk9yHUj8aIDrMalNLTrCYMkLic8SPNUCawyxdVU+w/bbJdKDXnaaPNRDuyf1iouGAxnVrV4TRNlIP4gHSz7cwXBemME2bQQXK0pMYZjObFaSXj8JEITogvYxgtHdt2GfCFKhpM6hAGSAxnCuV8N8zRQakOcw6C+HoDIZcXQqrQNEhETaQbv4SVpZ4gOg3ImH1znr6YHOSyazZvOkqLxscHxaHL0cRPxYgXi9S40Zg5yiFa54MKlDEnqTOPtLD1VHUjg9IH1+hw7sSTJ+iKFAsSF6kmzVEMFHCExuQZi/yELBZFAc0T0YVKAokwhHSzX9FVdkOIP3siuE3UZ3QfJlVIPicpM59wIoZq8kb4vDZOD5ZAaTZi/wZ2DiOM5o3gwoE7UnciXvdOy0lVoO0rEB34/7ByXFs2gOkj13o4IY4zmjejCqQT0heZwlWlQn8K46q1gDRXiROGHKQN2+QxJx7zIuIbUC2A36Xg3Cri9EUCDYn6WMtOrzhVjpzEsPzUmHNaFVcOJdVQJq9yPXAN204pzYyqEA+epJdxOEmG+rZB2TwXvVngH+z4aDayKAChl9IhR/4eWbSmLhH2NI+XD2sA+L1IlVORfixn4D6e44VyCYk/6SDtaTL3l02yQDSxxJ08Fe92SjHAARzfao4TPRLato1JxF6pZtT/PwJ83sigHi9yGS2pc5dYZzRtDlUICs9ieFZxvAF2ZsBmyomBkhzwn4ptL6k3WZF1FaKCqQPibvPanNxeNi2CskC0seydHjnny5n23G1lzEF0oVkijhMSkKRRAHxehHdp5VE3LJpMx1IXmYJ1pUJfJCEKIkD0nyrpceVJhG9LNpsLyQGw1ZSYXpSUrQHkDMYxWI8i7BCUhVRuxlSoF2QGM6UCsclWfO2ANKcsO8Aw1+YmGRF1XbbFQj2Cnjws233So1Ph/IwwB3noey1SNw2QJpDrZ8i/MiG42ojFwoEg6Sfbgy1EDWaQ51NpYdnQ+SJlLS9gBiEfm9tRO9bjxSuHGYKMNwyg9uTXg5cO+Eb0s3NgdPHSNhWQLxeZPDYUvf4lZVj+K1Z86SADyTmHFZmgJkBq/QTcdq3jantgDSHWu5Vbn8ElgwoiibLvwIth1umyp4I1wSo4g3isGuAdNaSpAKIB0k/O2K4xVpN1FD2FRiiJzHnsTQf8ijwOZ8KPECdr0kPH7azoqkB0oTkIAyXtLPCWlbqCrjD6wsw3icRGwE9CMv7eDUDw7gw1xbYqmWqgDSHWycg/MRWhdRO4RR4nRGMkyN5KY2apQ5IE5IaQncaAmiZGVbA8E5jGL55O17ntlIhE4B4kNSYBnw3w+FS19qrwHvU2VJ6eLy9xS5cWmYAafYk/42wd5qCaNkZUMDwfuMt53hxeDBtb7IFiLuQWONyhP3TFkbLT02BWcD2SXzbEaVGmQJkXgVMlakIR0SpkObJsQKGNxG2EYcZWalFJgFpzklOA47PilDqR8IKGP5GJ1+VLp5LuKRQ5jMLiAdJP9/HMBXItJ+hFNfEn1TA8ERzzvFG1uTJfMMzNe8QOvfyEz1nK2utx4Y/hrtZjJ1lIu/ZMGfbRuYBab7d2qpx/8hvEZa2LYDaS1WBK8XJ9guZXADiQTJ4V7d7N/sXUw2pFm5DgQEMx0uFM20YS9JGbgDxIJnG4sziCoTdkxRFbSeogLs6Djsn+R25Te9zBci8ipsqRyOcZVMItdUGBQzTMewlPYG//WiDU8MXkUtAmm+41qeOe1rKBqmrqA4Mr4Dho0aCXmZzhvRSz5NcuQXEg+Q8RvKBtxPY7VE68iR8aXw1PNk4p3lv6fa+Is3dk2tA5g+5JrMxA1zYmMRvkrsIFNVhdz8VnMZszpZerwfJ5VMIQLzeZPBAiMMxuCenLJvLaBTH6WvppEsm8Wreq1QYQOb3JlNYjrm421Qm5D04OfR/BsJE6eYPOfR9SJcLB8gCw671qHOxe+p3UYKV4XrMamwG6mUlpti+fiDtOhcWkPmgVNkf8S5VsXKpY9oBy1z5hnMxnCQ93vpG4Z7CA+LNT66mk5kciHCigmKhDQ++tr0Iw2l5WtOIUvNSALKgMKbKIY3/70VYJYpgmocp1Dm96GDMi3PpAFmgR9kP4QRgHW30PgoY7yyq8xF+Jg6Z25KeZPxKCcgiPcqBwPcQtk1S6JzafgXDpXTSL128ldM6xHK79IDMn8wPng/rwnIAsH4sVfOd2f0m/Bo6uIJJ3COCe/9faR8FZIjQmz42aNytuB+GbyOsVvjWMTiEurEx3LyK2dyc55Vv27FSQPyG3zW2BvbAsDPCWrYDkKK9OcDtCDfyEb+SY7ytIfosooACEqJJmMmsyQA7Id7B219BGBUiexaSutcku6vcvxWHe7PgUNZ9UEBiRKg5FBsHbOkekYmwbgxzdrMa/o5wPzCdDqYzigflYP7PbiHFt6aAWIxx8yj/QWDgyxjvM+GxbbgHxb2dyf3zGMJ9jV7uIenheYtVK60pBaQNoTdVRtPBWOreLb+jgaXAG54t1RymjcIwav7fYS6G2Y2rAdx5whzE+/u7GO/PHDqZw4DXQ8yUCq+1oQqlLUIBKW3oteJBFFBAgqikaUqrgAJS2tBrxYMooIAEUUnTlFYBBaS0odeKB1FAAQmikqYprQL/DwhFBzIgWPz6AAAAAElFTkSuQmCC;" vertex="1" parent="1">
          <mxGeometry x="660" y="620" width="40" height="40" as="geometry" />
        </mxCell>
        <mxCell id="C-2PJ58ULMP3kAUmGiD7-34" value="" style="edgeStyle=orthogonalEdgeStyle;rounded=0;orthogonalLoop=1;jettySize=auto;html=1;" edge="1" source="C-2PJ58ULMP3kAUmGiD7-36" target="C-2PJ58ULMP3kAUmGiD7-38" parent="1">
          <mxGeometry relative="1" as="geometry" />
        </mxCell>
        <mxCell id="C-2PJ58ULMP3kAUmGiD7-35" value="信号触发" style="edgeLabel;html=1;align=center;verticalAlign=middle;resizable=0;points=[];" vertex="1" connectable="0" parent="C-2PJ58ULMP3kAUmGiD7-34">
          <mxGeometry x="0.046" y="3" relative="1" as="geometry">
            <mxPoint as="offset" />
          </mxGeometry>
        </mxCell>
        <mxCell id="C-2PJ58ULMP3kAUmGiD7-36" value="sig_http_finish" style="rounded=1;whiteSpace=wrap;html=1;" vertex="1" parent="1">
          <mxGeometry x="712.5" y="620" width="100" height="40" as="geometry" />
        </mxCell>
        <mxCell id="C-2PJ58ULMP3kAUmGiD7-38" value="slot_http_finish" style="rounded=1;whiteSpace=wrap;html=1;" vertex="1" parent="1">
          <mxGeometry x="718.75" y="720" width="87.5" height="40" as="geometry" />
        </mxCell>
        <mxCell id="C-2PJ58ULMP3kAUmGiD7-41" value="connect事件" style="text;html=1;align=center;verticalAlign=middle;resizable=0;points=[];autosize=1;strokeColor=none;fillColor=none;" vertex="1" parent="1">
          <mxGeometry x="670" y="1050" width="90" height="30" as="geometry" />
        </mxCell>
        <mxCell id="C-2PJ58ULMP3kAUmGiD7-49" style="edgeStyle=orthogonalEdgeStyle;rounded=0;orthogonalLoop=1;jettySize=auto;html=1;entryX=0.5;entryY=0;entryDx=0;entryDy=0;exitX=0;exitY=0.5;exitDx=0;exitDy=0;" edge="1" parent="1" source="C-2PJ58ULMP3kAUmGiD7-44" target="C-2PJ58ULMP3kAUmGiD7-47">
          <mxGeometry relative="1" as="geometry" />
        </mxCell>
        <mxCell id="C-2PJ58ULMP3kAUmGiD7-50" value="是注册模块触发这个信号" style="edgeLabel;html=1;align=center;verticalAlign=middle;resizable=0;points=[];" vertex="1" connectable="0" parent="C-2PJ58ULMP3kAUmGiD7-49">
          <mxGeometry x="0.2309" y="-2" relative="1" as="geometry">
            <mxPoint as="offset" />
          </mxGeometry>
        </mxCell>
        <mxCell id="C-2PJ58ULMP3kAUmGiD7-44" value="判断事件类型" style="rhombus;whiteSpace=wrap;html=1;fillColor=#fff2cc;strokeColor=#d6b656;" vertex="1" parent="1">
          <mxGeometry x="717.5" y="820" width="90" height="50" as="geometry" />
        </mxCell>
        <mxCell id="C-2PJ58ULMP3kAUmGiD7-46" value="" style="endArrow=classic;html=1;rounded=0;" edge="1" parent="1">
          <mxGeometry width="50" height="50" relative="1" as="geometry">
            <mxPoint x="762" y="760" as="sourcePoint" />
            <mxPoint x="762" y="820" as="targetPoint" />
          </mxGeometry>
        </mxCell>
        <mxCell id="C-2PJ58ULMP3kAUmGiD7-47" value="sig_reg_mod_finish" style="rounded=1;whiteSpace=wrap;html=1;" vertex="1" parent="1">
          <mxGeometry x="600" y="960" width="120" height="60" as="geometry" />
        </mxCell>
        <mxCell id="C-2PJ58ULMP3kAUmGiD7-52" value="" style="html=1;verticalAlign=bottom;startArrow=circle;startFill=1;endArrow=open;startSize=6;endSize=8;elbow=vertical;rounded=0;" edge="1" parent="1" target="C-2PJ58ULMP3kAUmGiD7-33">
          <mxGeometry width="80" relative="1" as="geometry">
            <mxPoint x="382.5" y="735" as="sourcePoint" />
            <mxPoint x="632.5" y="585" as="targetPoint" />
          </mxGeometry>
        </mxCell>
        <mxCell id="C-2PJ58ULMP3kAUmGiD7-53" value="" style="rounded=1;whiteSpace=wrap;html=1;fillColor=none;dashed=1;" vertex="1" parent="1">
          <mxGeometry x="880" y="22.5" width="240" height="500" as="geometry" />
        </mxCell>
        <mxCell id="C-2PJ58ULMP3kAUmGiD7-54" value="注册模块" style="text;html=1;align=center;verticalAlign=middle;resizable=0;points=[];autosize=1;strokeColor=none;fillColor=none;" vertex="1" parent="1">
          <mxGeometry x="940" y="32.5" width="70" height="30" as="geometry" />
        </mxCell>
        <mxCell id="C-2PJ58ULMP3kAUmGiD7-59" value="" style="edgeStyle=orthogonalEdgeStyle;rounded=0;orthogonalLoop=1;jettySize=auto;html=1;" edge="1" parent="1" source="C-2PJ58ULMP3kAUmGiD7-56" target="C-2PJ58ULMP3kAUmGiD7-58">
          <mxGeometry relative="1" as="geometry" />
        </mxCell>
        <mxCell id="C-2PJ58ULMP3kAUmGiD7-60" value="解析" style="edgeLabel;html=1;align=center;verticalAlign=middle;resizable=0;points=[];" vertex="1" connectable="0" parent="C-2PJ58ULMP3kAUmGiD7-59">
          <mxGeometry x="0.011" y="1" relative="1" as="geometry">
            <mxPoint as="offset" />
          </mxGeometry>
        </mxCell>
        <mxCell id="C-2PJ58ULMP3kAUmGiD7-56" value="sig_reg_mod_finish" style="rounded=1;whiteSpace=wrap;html=1;" vertex="1" parent="1">
          <mxGeometry x="966" y="77.5" width="109" height="50" as="geometry" />
        </mxCell>
        <mxCell id="C-2PJ58ULMP3kAUmGiD7-57" value="" style="shape=image;verticalLabelPosition=bottom;labelBackgroundColor=default;verticalAlign=top;aspect=fixed;imageAspect=0;image=data:image/png,iVBORw0KGgoAAAANSUhEUgAAAMgAAADICAYAAACtWK6eAAAAAXNSR0IArs4c6QAAFmpJREFUeF7tnQmUXUWZx39fd8IAGgiLICQssoggMCwiYRGOZlhEEGSXRQSBiCHd9zWbAkLDiLJIv9chxGENywEcEJRFFlE2gbCIMIMIYQcJq2ASthHTr+bd2y8hCf36bnXf3b57Tg7hvKqvvvp/9UtV3apbJeijCqgCLRUQ1UYVUAVaK6CAaOtQBYZRQAHR5qEKKCDaBlSBaApoDxJNN81VEgUUkJIEWqsZTQEFJJpumqskCiggJQm0VjOaAgpINN1C5TLTWJx3WJURjKHOWIQxmPn/XcbXmGAwvAm8AszE8Aqd3p+ZciQv+ebXBJEVUEAiS7dwRnMeS/I+69HBesC6wPrA6sBYYLSlYlqZeQPDSwjPA08AT9LJEzKJpxIut/DmFZCIITa9dLA0mwM7IOyIYTOEjojmkslmeB/hTgy3YrhNeng2mYKKa1UBCRFbU2NFYGfg68B2wFIhsmch6XPALU1g7pAePsyCU1n2QQHxiY6psXUTiJ2AjbIczNC+GX7nATOC62USL4TOX4IMCsgiQTZn8SlGsBvwTYTt2zB/yEozc+crtyLcIN3cmRWn0vZDAWlGwPSzNoYu4Ds5HDrZbkczMJzLR1wix/GubeN5sld6QEwfeyNMQPhangLXJl8/AC5r9KI1cZjRpjIzVUwpATFVRiMchmEiwmqZikh2nfkDMJlubhR3XaYkT6kAMZNZigFOReguSXyTqOYLGH4sFa5IwnjWbJYGEFOjq7EefTLCslkLQtOfhzFMA14ENgCOQlgho766bj1MB13SxQMZ9jG2a4UHxFTZEzgN4fOx1UrKgOE6qbDHgua9YSA8loMh4C/p5PiiviYuLCCm5i3o/Wcu1i5GspJM5PVF+TP97IvhqqS4tGrXcD6GU6WHmVbtpmyscICYKps0hiZTGwtg7jaQ7D+Gp6XCOkM5aqqshPBq9iuxgIeGfgw/KsoqfWEAMecxkg85CcMPEUbkplEZpkuFLVv5a2rUgbzF6UWE/aWb+3MThxaO5k34IathamyI4UqEL+YuIMUExA2D+yr4XOocm+feJNeAmKvp5DVOpM6Jueo1FpqNF7IH+biGhucx7CM9/Cl3/3jlsOuer7HpYy06uBLYLI/Cf1yRggMyWNEBDKczm17pZW6e4pXLHsRUvRXwKXkSuqWv/kOsIq1aP0oHe0kX7rb7XDy5AsT0shijvcW0/XKhbhAn/QHJ4yR9uJrPoc5e0uNttc/8kxtAzDmszFxvO7a7ylycp3yADE7gDSdLxVunyvSTC0BMP1tiuAnwP+Ag03IP6dz94rBVK7dNrdAbA38jDt/KcsgyD4jp9773/jWweJaFjOxbOXuQj+UyTKeTHaWLOZE1TDBjpgEx/RzcOCbnwswdhmAzIGUHZFDLGdQZn8VtKpkFxNS88emJNttiRm2VeYi1YEhepZPxWTuqKJOAmBrnNw5IOyyjDdquW9qDLKjn29T5qvTwuF2Ro1vLFCDGIPR7i3/7Rq9SznIqIIsGzJ2LbC8OD2YhktkCpMbVjZMB98qCMG30QYdYnxTb/RZ+B3G4t41xGLKozABiqlyGcGDagrS9fO1Bhpbc8C7C1uLwv22PyQIFZgIQU+Mc4Mg0hUitbAVkOOnfRthCunkmrfikDkjje4eTGpsmT0lLgNTL9QekSHuxwstteA1hnDi8HD5z/BypAmKqHIJwUfxq5NiCPyBF24sVJVhPNQ7f3kIqzIqSOU6e1AAxNXbAcHOhFwGDREYBCaKSm+YBlmAbmcC/gmawkS4VQEyNzTHcibCEjUrk3Ia+xQoawCFOfwmaNWq6tgNiJvMZBvhLxs98iqpn+Hzag4TV7GRxODVspqjp2wqId+nMaO5rnCI+LqrDhcungIQNqbucvJ104x6FmvjTXkBq9IN3gro+8xRQQMK3BcNs6mwgR/G38JnD5WgbIKbK7o2Pna4N514pUuscJFqYHxGHL0XLGjxXWwAxP2d5RvB0QT94Cq72UCm1B4mun9Ar3cmuobUHkBq3epdd6vNJBRSQ6K3CMBdh0yS3oyQOiKlyaONe8Auiq1DwnApIvAAbnmRJ/j2p9ZFEAfEOWhjwbib6dDwVCpxbAYkfXMPPpMLx8Q190kKygNT4PTA+CccLY1MBiR9Kd6hl2Eh6eCK+sYUtJAaIqbEP8EvbDhfOngJiK6SJvNVKBJDm5S/PNE4/XN5W7QtsR1/z2gquoUsq3qcT1p5kAKnxC+D71rwssiHtQexF1/3IaoA15Gj+bsuodUBMP+tjvK/ArNu2VelM2VFAbIfjMnE4yJZR643YVHkYSX6F05YAqdtRQOyHoM7m0sNDNgxbBcRUORDxLp7XJ6gC/oCU+4vCoDounO4xcdg4WtaE3mJ5O3WXxr16axUbjpXGhj8g+kVhlMZg2EMqXBcl64J5rPUgpo/D6eC8uA6VLr8CklTI/ypO/Cv5rADSvEDT/aj+s0nVtrB2FZDkQlv3rn5zz1qL/NgBpMYPvAsb9QmvgD8gOgcJr+q8HDPE4QvRs1t4Fds8LvQVYOU4jpQ2rz8gOgeJ1zh2FYcbopqI3YOYfvbDcEVUB0qfTwFJtgkY7pMKW0ctJD4gNe8k7vWjOlD6fApI8k2gzmZRr6GOBYipsR3k4zLG5KMQsQR/QHQOElHa+dliHBcUF5BfAXvE9b/U+f0B0TlI3AZiqDPAilH2aEUGxExhOebyGjAyrv+lzq+AtCf8huOkwplhC4sOSI2jGl8K/jxsgZp+EQUUkHY1iafEYd2whcUB5MnGB1Gx3jGHdbag6fV7kHYF1rClVJgeprhIgJgqmyA8EqYgTdtCAe1B2tk0porDxDAFRgXkDIRjwxSkaRWQ1NuA4Z3GF4fLhfEjKiAv667dMDIPk1Z7EEtCBjRjGC8V7giYOvxXf2Yy46iHG8cFdaaU6RSQ9obdcL5UmBC00NA9iKlxOnBc0AI0nY8CCkh7m4jhTamwYtBCowDyKLBR0AI0nQKSuTZQZ0Pp8bZI+T6hAGkeQv2Wr1VNEFwB7UGCa2UrpeEYqQRbwwsHiH5zbitEH9tRQOxr6m/xdnHY3j9ZyO9BTI3LgQOCGNY0ARXwB0Q3KwaUMkwycYK9oArXg9S8vVf6WW2YSPil9QdENyv6aRjl9zrbSA9/9MsaGBBTZXWEF/wM6u8hFVBAQgpmLfkJ4vBTP2vBAanxHeBSP4P6e0gFFJCQgllLfps47OhnLTggVS5AONTPoP4eWgHdrBhaMisZ3hOHUX6WwgDyCMImfgb195AKaA8SUjCLyeusLT08O5zFMID8E2Exi+6pKVcBBSS9diDsJt1cHxsQ08/aGO+WWn1sK6CA2FY0jD3fiXqgHsRU2Q3h12FK1rQBFVBAAgqVSLIrxWH/+D1Izbsg8bREXCy7UX9AdKEwuTbyaONQuWHn1cF6kBoXAwcn52eJLfsDoguFSTUPw4eNgxyWjN+DVLkLYduk/Cy1XQUk3fDXWU56eKeVE0F7kJeAVdOtSUFLV0DSDazwJelufb6CLyDexTijGUi3FgUuXQFJN7iGvaSCewDikI8/IDWv53B7EH2SUEABSULV4DZ9ro72B2QyG1Pnz8FL1JShFFBAQsllPbHhFKnQG6cH0QOqrUdlAYMKSJLq+ts2nCMVuqID0s++GK7yL0lTRFJAAYkkm8VMwy4W+g+xqhyBMNWiQ2pqYQV0N2+aLcJwi1TYKXoPUmUiwpQ061Dosv17EF1JT7IBGB6SCptHB0Svd04yPO5u3scb93lv2KoQU2Om3v+YYAgMz0qFtaMD0s9BGC5J0MWym35dHFYaBpALge+VXaQE6z9LHJaJA4he0plgdDzTnYyRSbw6VDGmykoI9zU+d/5c0m6U1f5wJ5wEmaTvjnBtWcVrU70nitP6RYiZzFjq3AWs2SZ/ylWMYRmpMGuoSgcB5BsIN5VLsbbX9gFx2GK4Uk0fY+jgXmD1tntX9AI7WFq6mBMNkH7GY/h90TVKvX4BzmnyepIB7kZYI3V/C+RAvCFWjW2AuwukR1ar8hwj2Ugm8t6wPcngcOsenZPYC2M8QPQ+EHuR8Ld0rTjs6ZdMexI/hcL9Hg+QmveO/n/CFampYyhwkTj+548pJDEUXjjrP8Rh2VbW/CfpZ7MKnbxszR015K+A4WKp+K996MTdX8oAKZ4Th7WiA3IWn2Lk8OPiAE5okrAKKCRhFYuWPu5WE7dUU+NDYPFoHmiuyAooJJGlC5wx7mZFD5AqryKtt0MEdkYThldAIQmvWZgchsul4h3MPuTjOwdp9iB/AjYNU66mtaiAQmJRzE+YOkMcfhgPkCrXIP6vH5OsReltKyTJNIE6E6SH8+MBUuNM4JhkPFSrgRVQSAJLFThhne2kp/VOkWBDLP2qMLDeiSdUSOxKXGdN6eH5eD1IH9vTwW12PVNrMRQIvphY9+7h0w2OrSbhPpd5ButBBneSvhIjoJrVtgLak8RX1OdrTreAQIB4b7KqvI20XpKP761aCK2AQhJasoUyGK6QyvDXmgcHpObt6HV39uqTJQUUkujRMBzXON3dfQHV8gkDyDnAkdG90ZyJKRAOkgeAsYn5kifDwtelm1vtAFLluwjT8lT/UvkaFJIprMZc78tEhcTn6oNwc5Cz+TydzChVo8tbZRWS4BEzPC0V1vHLEHiI1Zyov9U4RG55P6P6e4oKKCRBxZ8mDof4JQ4LyA0Iu/gZ1d9TVkAhCRKAQ8XhIr+EYQE5FuEMP6P6ewYUMFwoFQ7z88RUvUXEexHG+KUt1O8DrCNH+V9tHhaQTRo9yCOFEqrIldGepFV0X2n0HqsECX0oQLx5SI1/AKODGNc0GVBAIRkqCBeIw+FBohMekCpXInw7iHFNkxEFFJJFA7GnOMFOC40CiK6HZKTdh3JDIZknl3GvpW11kuKimoYHZCrL8BFveUcu65MvBRQS97qJO6TC+KCBCw2INw+pcjvCfwQtRNNlSAGF5HBxuCBoRKICcmjjtWDgQoI6o+napEB5IRnAsHyrk9yHUj8aIDrMalNLTrCYMkLic8SPNUCawyxdVU+w/bbJdKDXnaaPNRDuyf1iouGAxnVrV4TRNlIP4gHSz7cwXBemME2bQQXK0pMYZjObFaSXj8JEITogvYxgtHdt2GfCFKhpM6hAGSAxnCuV8N8zRQakOcw6C+HoDIZcXQqrQNEhETaQbv4SVpZ4gOg3ImH1znr6YHOSyazZvOkqLxscHxaHL0cRPxYgXi9S40Zg5yiFa54MKlDEnqTOPtLD1VHUjg9IH1+hw7sSTJ+iKFAsSF6kmzVEMFHCExuQZi/yELBZFAc0T0YVKAokwhHSzX9FVdkOIP3siuE3UZ3QfJlVIPicpM59wIoZq8kb4vDZOD5ZAaTZi/wZ2DiOM5o3gwoE7UnciXvdOy0lVoO0rEB34/7ByXFs2gOkj13o4IY4zmjejCqQT0heZwlWlQn8K46q1gDRXiROGHKQN2+QxJx7zIuIbUC2A36Xg3Cri9EUCDYn6WMtOrzhVjpzEsPzUmHNaFVcOJdVQJq9yPXAN204pzYyqEA+epJdxOEmG+rZB2TwXvVngH+z4aDayKAChl9IhR/4eWbSmLhH2NI+XD2sA+L1IlVORfixn4D6e44VyCYk/6SDtaTL3l02yQDSxxJ08Fe92SjHAARzfao4TPRLato1JxF6pZtT/PwJ83sigHi9yGS2pc5dYZzRtDlUICs9ieFZxvAF2ZsBmyomBkhzwn4ptL6k3WZF1FaKCqQPibvPanNxeNi2CskC0seydHjnny5n23G1lzEF0oVkijhMSkKRRAHxehHdp5VE3LJpMx1IXmYJ1pUJfJCEKIkD0nyrpceVJhG9LNpsLyQGw1ZSYXpSUrQHkDMYxWI8i7BCUhVRuxlSoF2QGM6UCsclWfO2ANKcsO8Aw1+YmGRF1XbbFQj2Cnjws233So1Ph/IwwB3noey1SNw2QJpDrZ8i/MiG42ojFwoEg6Sfbgy1EDWaQ51NpYdnQ+SJlLS9gBiEfm9tRO9bjxSuHGYKMNwyg9uTXg5cO+Eb0s3NgdPHSNhWQLxeZPDYUvf4lZVj+K1Z86SADyTmHFZmgJkBq/QTcdq3jantgDSHWu5Vbn8ElgwoiibLvwIth1umyp4I1wSo4g3isGuAdNaSpAKIB0k/O2K4xVpN1FD2FRiiJzHnsTQf8ijwOZ8KPECdr0kPH7azoqkB0oTkIAyXtLPCWlbqCrjD6wsw3icRGwE9CMv7eDUDw7gw1xbYqmWqgDSHWycg/MRWhdRO4RR4nRGMkyN5KY2apQ5IE5IaQncaAmiZGVbA8E5jGL55O17ntlIhE4B4kNSYBnw3w+FS19qrwHvU2VJ6eLy9xS5cWmYAafYk/42wd5qCaNkZUMDwfuMt53hxeDBtb7IFiLuQWONyhP3TFkbLT02BWcD2SXzbEaVGmQJkXgVMlakIR0SpkObJsQKGNxG2EYcZWalFJgFpzklOA47PilDqR8IKGP5GJ1+VLp5LuKRQ5jMLiAdJP9/HMBXItJ+hFNfEn1TA8ERzzvFG1uTJfMMzNe8QOvfyEz1nK2utx4Y/hrtZjJ1lIu/ZMGfbRuYBab7d2qpx/8hvEZa2LYDaS1WBK8XJ9guZXADiQTJ4V7d7N/sXUw2pFm5DgQEMx0uFM20YS9JGbgDxIJnG4sziCoTdkxRFbSeogLs6Djsn+R25Te9zBci8ipsqRyOcZVMItdUGBQzTMewlPYG//WiDU8MXkUtAmm+41qeOe1rKBqmrqA4Mr4Dho0aCXmZzhvRSz5NcuQXEg+Q8RvKBtxPY7VE68iR8aXw1PNk4p3lv6fa+Is3dk2tA5g+5JrMxA1zYmMRvkrsIFNVhdz8VnMZszpZerwfJ5VMIQLzeZPBAiMMxuCenLJvLaBTH6WvppEsm8Wreq1QYQOb3JlNYjrm421Qm5D04OfR/BsJE6eYPOfR9SJcLB8gCw671qHOxe+p3UYKV4XrMamwG6mUlpti+fiDtOhcWkPmgVNkf8S5VsXKpY9oBy1z5hnMxnCQ93vpG4Z7CA+LNT66mk5kciHCigmKhDQ++tr0Iw2l5WtOIUvNSALKgMKbKIY3/70VYJYpgmocp1Dm96GDMi3PpAFmgR9kP4QRgHW30PgoY7yyq8xF+Jg6Z25KeZPxKCcgiPcqBwPcQtk1S6JzafgXDpXTSL128ldM6xHK79IDMn8wPng/rwnIAsH4sVfOd2f0m/Bo6uIJJ3COCe/9faR8FZIjQmz42aNytuB+GbyOsVvjWMTiEurEx3LyK2dyc55Vv27FSQPyG3zW2BvbAsDPCWrYDkKK9OcDtCDfyEb+SY7ytIfosooACEqJJmMmsyQA7Id7B219BGBUiexaSutcku6vcvxWHe7PgUNZ9UEBiRKg5FBsHbOkekYmwbgxzdrMa/o5wPzCdDqYzigflYP7PbiHFt6aAWIxx8yj/QWDgyxjvM+GxbbgHxb2dyf3zGMJ9jV7uIenheYtVK60pBaQNoTdVRtPBWOreLb+jgaXAG54t1RymjcIwav7fYS6G2Y2rAdx5whzE+/u7GO/PHDqZw4DXQ8yUCq+1oQqlLUIBKW3oteJBFFBAgqikaUqrgAJS2tBrxYMooIAEUUnTlFYBBaS0odeKB1FAAQmikqYprQL/DwhFBzIgWPz6AAAAAElFTkSuQmCC;" vertex="1" parent="1">
          <mxGeometry x="910" y="82.5" width="40" height="40" as="geometry" />
        </mxCell>
        <mxCell id="C-2PJ58ULMP3kAUmGiD7-63" value="" style="edgeStyle=orthogonalEdgeStyle;rounded=0;orthogonalLoop=1;jettySize=auto;html=1;" edge="1" parent="1" source="C-2PJ58ULMP3kAUmGiD7-58" target="C-2PJ58ULMP3kAUmGiD7-62">
          <mxGeometry relative="1" as="geometry" />
        </mxCell>
        <mxCell id="C-2PJ58ULMP3kAUmGiD7-58" value="" style="shape=image;verticalLabelPosition=bottom;verticalAlign=top;imageAspect=0;aspect=fixed;image=data:image/png,iVBORw0KGgoAAAANSUhEUgAAAMgAAADICAYAAACtWK6eAAAAAXNSR0IArs4c6QAAG4RJREFUeF7tnQmUFNXVx/9VXdU9MyzDpiCLgKiAILgTcAOXSFRQQFFExEgUgluMJhpRGHDXL3FJjAZFg4oohkVBEURBDAqIigsyiBurgDPAsM30UlX5bsEgTFdVV1VXd1fX3HcO55j0fffdd9/9zdtfCeDEHmAPmHpAYN+wB9gD5h5gQDg62AMWHmBAODzYAwwIxwB7wJ0HuAdx5zfOVUs8wIDUkobmarrzAAPizm+cq5Z4gAGpJQ3N1XTngbwApKysrKMqCF0gCG00TSt0V1XOZeSBgs/nLS0+67K32DvGHvAtIFu3bi2OqeqNEIRhAtCGGzAzHghPGpcQ2x4ztLjP8JczU0J+a/UlIOXl5cckgDkAWua3e/1vfeT5OyDEqlSl46lXNuo3YrL/Lc6uhb4DZMu2bWdoqvoGgOLsuqJ2lqYDsnMrECliSAxCwFeA0Pxic3n5p4IgdKid4Zr9Wu8HhIpmSJIawFeAbC4vLwEwJvthUntLPAgQhsTfgGwqK9sjCAKvUmWR1yRAqiE55rQhjS7mibtvepAt5eW9NWB2FmODi6JRVfUcpKY3eLile8Q3gPDwKje8mgLCwy3fAfJvAENzEya1t1RLQBgSX/UgDEgOOE0JSC2HxE9DLAbEr4DUYkgYkBwEpZ+KtNWDVBtcCyfuDIifojUHtjgCpBb2JAxIDoLST0U6BqSWQcKA+Clac2CLK0BqESQMSA6C0k9FugaklkDCgPgpWnNgS1qA1AJIGJAcBKWfikwbkIBDwoD4KVpzYIsngAQYEgYkB0HppyI9AySgkDAgforWHNjiKSABhIQByUFQ+qlIzwEJGCQMiJ+iNQe2ZASQAEHCgOQgKP1UZMYACQgkDIifojUHtmQUkABAwoDkICj9VGTGAclzSBgQP0VrDmzJCiB5DAkDkoOg9FORWQMkTyFhQPwUrTmwJfzyOIhl67NXcp5dumJAshcavixJfvNphL77NKu2qZFCTex82uDivv5/C5gByWpo+K+w0JfvQ54/KfuG5UlPwoBkPzR8VaJQuQvhiXfSC+9Zt0uLFGqCz3sSBiTrYeG/AqXP3oH0wWs5MczvkDAgOQkLnxWqqZCnPYrQhlW5MczHwy0GJDch4btSaaglz3kW4tqvc2KbX3sSBiQn4eDfQqUvFyC0aDqEWGXWjfQjJAxI1sPA/wUKuysQ+mYpxDUrgO2bIe4oz5rRflsC9g0gm8rLXxaAQVlrCS7Izx74V9PGjUf4wUAGxA+twDbU9AADUtMj3IMwJQd4gAFhQBgICw8wIAwIA8KAOIgBHmI5cFbwRbkH4R4k+FGeRg0ZEAYkjfAJflYGhAEJfpSnUUMGhAFJI3yCn5UBYUCCH+Vp1JABYUDSCJ/gZ2VAGJDgR3kaNWRAGJA0wif4WRkQBiT4UZ5GDRmQIAFC9yWEsnXA7gr9opHWuAWUNsemER/GWYUdZfodDaFqN1CnGGqdBtAOOwJauNDzsnKskAEJAiD02IFYuhjiz+uS4klt2AyxIeM8i7PQhm8gvf44hEQ8uazWnaB0PSsjUHpWAWeKGJB8BkRctxLyey9BqPjZstnj5w2D0r6bs9AwkQ6/+gDEzT9Y6lLadIHS6wqo9Rp5UmYOlTAg+QqItHQWpMVv2IqdRLc+oH9epMj4W/YOrVIkNVIE5cKRUFocnUrUz78zIPkIiDxnAkKrltgOrETPQUh06WVb3kowPGksxPINtnXFL/g9lHbH25b3mSADkm+ASB/OgLTsLdtxpElhRK9+ACiqZzuPlaC0fB6khVNs69JCEmKX/Bla0za28/hIkAHJJ0DEn9ciPPley/ihgFSbtt0rI4ag9OgHtdm+/+1R5FHvJX7/BbB7OwQ1AXGT9ZxEKz4E0aH3eVR6VtUwIPkESHjGY6YPqtGYXz3lAiidTsv6cistEoSWzYa04r+m0Zs492okOvbIanR7UBgDki+A0Lcz6BsaRolWixIDboNav4kHMeFeRei7zyC/+ZSxjR4vN7u30lFOBiRfAJE+mgHpY+O5R2zgXzwfRjkKowOEpUXTIH3ytmF22o+hfZk8SgxIvgBi9gUm5eiTEe99rW9iTkjEEJ7wJwjR5CdDE6dfgsTxv/aNrTYMYUDyBZDIv242DLr4+SOgHHmCjbbOnoj01tOQvk3+WlTimFOROGdo9gxJvyQGJC8AURIoeHKk8bDl8lFQD22dfih4qEFaMhP0r2ZSWxyF2IA/eVhSxlUxIPkAiFC5E5FnbjUGZPAYqI1buI4UsWwdQh/OgLhxNbRwAdTDO0E5dQC0wrqudUpfzIe0YHIyIE1aInbFaNd6c5CRAantgISfux3irm0HuYHObdH5LbeJAXHrOfN8/Hi1lU8rd6LApAeJDh6jH2t3k4StPyHy0pikrFqdYkSHPeJGpZ4n9Pl7kN9/JbkHadwcscElrvXmICP3ILW5BxG3rEH4leQdbhpqRUc84ToeuQdx7TrTjNyDWPg0U3MQIR5FePwfISgH3+2gE7jxAbe5bmVTQBq3QGxwco/luqDMZ+QepDb3IFR3acUHkN59cb8b6MhKov+tUA9p5Tr8GBDXruMexI3rhN3bEZnwZ8Os0aH3Qis+1I3a/XnErRtBH8+kpDZoCpqDpJNqQleti3THrronHdXZzss9SD70IOJP3yH82kPGgIx8EpokZztwLMsL/fgl5Df+niSjyRFEf5/8//vK+IONYUDyARCz24NapBDR4Y/7Lr6sDlbGLvvLL8fxfWd5kkEMiN8Boeut8sRREKN7klpPad0Z8Ytu8mWYRZ6+2fATzn622cCRDIjfAZFffwKhNV8ZQuDnOxbSvImQvl5kaHe812Aox57pS7BrGMWA+BUQGqaEFryM0MZvDQNJq9MA0WEP+zbIrOZNZHTixN5QTuoNLVLk2zoAYED8AoiwaztCqz8GopUQ1peaglFtr5dP+VAwi5u+B+QCqK06Qi325uKVPHs8QquXmQJA14OVDt31x+dQr5H+nla6K2ge08aA+AEQq0tGRg1Op3djl4/yJBakd19Iuiob7/07KEefkrZ+YXcFwi/cBdqQtJvogQe1+ZF2xTMtx4DkGhCxfCPCk+yfT9KK6iN+6R2e/JUX9uxA5NnkHXPVwzNT9BKjPPX/bAeyz4aODEiuAQl9+T7k+ZNsB1D0qnuhNUhvY7C6MHqNJDzlgaSy9aeCRv7Dtk2pBKWVH0F65/lUYvt/j/32Qb+8ysiA5ByQHz6HPPNJ28GTOOVCJH7V17a8laDVX/eqm8Z7UgYpoR6EyrKTtJCM2DUPpXUfxU45NmUYkFwDQuXTiVo6WWs30bVVur6absoGIKkm6jXroJx2CeIn+ObeOgPiB0BoMhv65G0IW9bq5tADcVYTWzpaErvqPmh1G6TFSKYBoRUsAsQq0ZNFWr3G0IrqQWvfzW/PlDIgfgCkpg30aYHQig8QWjpr/yHCmjKJI09A4vwRvgVEP0o/cRRoIcAoqU1aQelxEegleB8nBsSPgFTbRKd4w689DPpgjVGKXn0/tDQei8tkDyItfxfSwlcN7VaOOgnx31znYy72m8aA+BmQvcOtdQhPNj4inuh+ERInX+A60DIJiNm8yusP+riuvL2MDIjfASH75LnPIVS6OKlJaZgSu+Jue01tIJUpQOgRCHoMwijF+97g92HVgWYzIPkASOjbTyG/9XRSvNFkPTrS/hJxTQWZAiS0vhTytL8ZAuLl8rHrvwz2MzIg+QCIsG0TIi8avycVveZh16tZ4vpVCE/7q+eBHFr5IeR3/p0MdMOmiA7hG4X2+fxFkh9tsPJahp79yRgg/OyPGwYs8zAgDIjnQeWBQh5i5cMQC9yDeBDrrlQwIAxIBuYgPMRyRaNVJh5i8RDL86DyQCH3INyDcA9iARIDkg+A0LmmyFM3GrZjbNDdrl9BzNQ+iPTZO5A+eC3JXrVpG8Quu9ODP+xZU8GA5AMgZGPkn9eDDjHWTPE+N0Bp6+7AX8YAWTAZ9PxozaS07Yp4n+uzFt0eFMSA5Asg4Rfuhrh9c1KbJ447G4kzLnMVC5kCJEL30LdvSba1Sy8keg5yZWuOMjEg+QKI/N5LCH21MClO9Bt4v30AdFfdabJ6msftkRB6mUWe/YyhKfELR0I54jinZuZSngHJF0BC60ohTzc+36S07IB4/z86DiSzzyrQJ93cfKZAqNii3440+sIt3XOPDX8UBHQeJQYkXwAhO82GWfSbelg7JHpe4XjCbtQz0V0NurPhJIW+Wap/l5CeSjVKia5nI3Gmu6GgEzs8lmVA8gkQq+FLdT2U5kdBa9kekCRodGuvzbEpY0b6YgGw7+Yfgaa27mSZhyAQ167Q5xlarApS6WLTm4OkiB6Io5dK3AwDUxqfWQEGJJ8AIVtpmEXDLbvJ6wtK9CSqPOVBCImYXRP0noN6kDxMDEi+ASLEKiFPeQj00Ru7yctnSqW5z0Mq/chu0Uh06akP/fI0MSD5BgjZS5NredY/QatQdlKiWx/QPy8S3ZEXfzJ+ULum/sTJ5yPR/WIvis2VDgYkHwGptpl2q2nXOlWivYdEl16pxGz9TmCGvl9uKasV1EXinKvybUnXqE4MSD4DQrbT276hha+Yzkv0N7SudrdPYhQxBAdBYpTo89FKp9OhdOsD+u8AJAYk3wGptp+GXeL3yyGUbQB2V+jDMAgilB79oDZr62ms0oalWLoECIWAomJodRtCbXk01NadPS3HB8oYkKAA4oNgCqIJDAgDEsS49qxODAgD4lkwBVERA8KABDGuPasTA8KAeBZMQVTEgDAgQYxrz+rEgDAgngVTEBUxIAxIEOPaszoxIAyIZ8EUREUMCAMSxLj2rE4MCAPiWTAFUREDwoAEMa49qxMDwoB4FkxBVMSAMCBBjGvP6sSAMCCeBVMQFTEgDEgQ49qzOjEgDIhnwRRERQwIAxLEuPasTgwIA+JZMAVREQPCgAQxrj2rEwPCgHgWTEFUxIAwIEGMa8/qxIAwIJ4FUxAVMSAMSBDj2rM6MSAMiGfBFERFDAgDEsS49qxODAgD4lkwBVERA8KABDGuPasTA8KAeBZMQVTEgDAgQYxrz+rEgDAgngVTEBUxINSq28cMmC8APYPYwlwnbzygAQsajJ3qzWe6XJgkuMjjWRYGxDNXBlYRA8I9SGCD24uKMSAMiBdxFFgdDAgDEtjg9qJiDAgD4kUcBVYHA5IFQOgrsEq746HVawShbD2kFR9A2L7FWVDRp5aPORXKIa2g1W0ECA7XNzQVQvlGyKuWQNj8o7OyTaS1hs2gtjsOat2G0ArrAZE6QLwKQuUuCHt2ILS+FML6Vd6UVdwEiePOgdbwMGBnOcLL5wHlG13ppvZIHHk8ULcRhJ/XQVqxEEJFmaEuBiTDgKhtuyDW54aDnR+rQuSFu/QgSpkiRYif8GsoXXoBkcKU4nYEIq/e7xoSQQ4j0el0JDr8CtqhrVMXt2s7QquWQP50LkCfqHaRtDrFiA65BzjwG+xVuxF57SEI2zY50khAxy4YeXCeaCUKXrjL0D4GJMOAxM/9LZSO3ZMaMTz3eYilH1k2rtbgUET73wbUbeAoCFIJh5bPg7xwSiqxg34X5IgOaoJALazrKK8uHKuCvGQmQp+94zivctw5iJ8xMCmfsPUnFLx6H7R4zLbO+HnDoLTvliQvz5mgg1wzMSAZBiR28S1QD++Y5Hjpw+mQls02b9h6jRC99A5oHsNBBYrffIzw28/YDirUaYBonxugHXq4/TwmkjTEDM/+F4Rtm23rSvyqLxKnXGgoL369COF5E23riva/FVrL9smALJqG0CdvMyAHeiAbG4VmDSItmQn6Z5aig+6Gdkgr2w3vRDC0bDbkD6fbykJQRPveDBTVsyVvR0iLRxGZ+xzE7z6zI45E94uROPl8U1l5zrMIrVpqS1fskj9DbX5k8h+sj16H9PGbDEg+AKJ0Ph3xs4bYanDHQtFKRF4aDWF3Reqs9Ruj6rI7AZqAZyCFpzwAcdMPKTWnAoSAK3jlPlvzEQYkpbt/EfBrD2LZe+zZCfHHLyDu3Oqgpr+ISl8vAuzkDRcgOvAv0BodlrIcGjbRCpmwcyu0onqguZPW/KiU+ciOgsnjgKo9lrKpAKHMducjDEjqZtkv4UdAaM4RveZhw1ro4/cZj9lb/XLgByPR+JmDoHQ1P6NHPZC0fB7E0sXGvVG4AOoRxyN+Um9LyOzMh+wAQnUQV/wX4XdfsKw5A+IgMPwIiHpYO8Quvd2wFukszzpwC2h/IzpknGkW2tuIzHpSX5myk2i4SMNGsxT5zyMQNq42/d0uIKTAbDWqWjkDYqfF9sn4EpDWnRG76CbDWhQ8cZ2D2rkXjV54PbQjuhoqENd8hfDrTzhWTsu0tFxrlGizLjL5Hk8ASTUfYUAcNJ0vAbHoQQqfuhEUABlNdRqgapjJEG/rT4i8ci+QiLsywQo80itsWWuo10kPoiso36jvjxjZyYA4aDo/AkJ7DmYBGn7neYgrrTcXHVTfUFTtdBpiZ19l+Ft41j8hfr/cdRFWQzdp8RuQls7yBhCL+QgD4qD5fAkIgOiVY40ntrEqhN+frK8WWaboHojbNzvaYd4/Rv/NcKhHnZikXqj4GZGJoxx411iUjt3Q8Zuaic6H0RzLKDnuQfYpkedOQKj04N1xBsRBE/oVkMTJFyDR/SIHNTEWFVd/AvnjWRDKNtjWZQZn6NO5kP/7H9t6zASVzmcgftaVST/T0JGGkE4AEdeuhJaImc6XjOYjDIiDJvQrIAhHEB1yL+iQnhdJX0qd/xIQrUypjpaYjY630NEU0pNuotMBtM9jlArG3wJU7U76yawHIUDo2EoV6avf2Ni08o0onHL//t6UAXHQgr4FBNCHIUmngB3ULWkIs2UNItP/lhKSqpvGG5ZC+y/i2q/TsGBf1kgRqoY/ZqiHVrJoRatmsgRkxqPQmrZBlHb8TdKB+yMMiIMm9DMgVA2l61mIn3m5gxpZiwrrSvdCYpGqhj9ueKw+PPMfEH/4In1bwhFUjfi7MSB0XGTLGseA2PFV9XyEAXHQhH4HhKqibxye9zvzIYSD+pKo/P4rCH3+nmkuunehNWya9DvtUNNf4nQT6dbvdhikyIQ/Ge7Kp+pBqlXFLvg91HbHG+rW5yOv3of4WVfxYUW7jZgPgFBd9EtK7btBadsVaqPmQHETu1VMltuzEwXP3moOiMlx8NAX8yEvmOy+3H056S4G3ckwSmYboXYBoQtVVYNGm/uHzosl4tCaJl/0kvg0b3KTuAGExrvx7hdDbXYEEKuEuK4U8qKppuej3B53dxuJdLFJadkesV5Xml60ikz7q+lV2HivwVCOPTO5+F3bUPCc8REYJ7aa/pUv34CCSWMNVdkGBNCvCJgtAljZyYAYeMcNINFhjyStLlkduMs2INXV1Bo1Q/RK4/NUZsGgD+kOPwaxi/9gGEvyuy8itOIDJzwcJEtXdKOXG++lWN2PcQIIFah06Yl4zysc2cmAeAAIHf2mfYKkZPHXNVeAkI2xvjdCbXNskrmhrxZCfu8l0wCquu4xoKAo+ffKXSh4eRywe7uj4KsWjl5+l+mtxMiLo03vczgFRK+7yYanmeEMiAeA0LAqNvAOR+Nns6CgG310sy+TKXb2EKidkk/RhkoXQ577nGnRtElJm5VGSdiwGpGpjzg228wWUiSuW4nw9Ect7DG+Uajvg8wwyZdqPlKjNAbEA0C04iaIDjU+DmF4FL2wHqqu/athw3u2bGoRqjTEoqFWzUQ74rQzbpoihaga+oBxL0KZyjcgMnu8fkkpVaJNR3q4Qm2VfC+/Om+qY/xuehDSrTVpgejAOwFJTmUmGBAPACEVVSOeOPj5mX166Y5Ewcx//HLaVpIR7X2d6TEIsyXNlC1pUyB+an8oJ/Y2hnP6o/pfbauknHge4qcOsJSRPn4L0ufvAnsMnvOhd7w6dEe8Rz9Df1UrpuMwtBtuldwCQjqVTqcjfnbq68sMiEeAxM4fDvXI5MN8uvqKMgg7y/X/1OjoQ33j5dhUQwpEivSVJOWwdtDkiE0kDhArqKv/9TRLBeP/kPKaK+U1O1hYU6+++x094NqsFIbWrG1Ku6kHirz2YMrd/XQAISPMnvo50EAGxKC5KkYP+DcEDE3ZkgcIWN34s6vHapmVdGTyRRM711L314POhF1yO7QmLe1Wzb5c5S5Eptxv+qLhgYrSBUQ/2zZwlOFws7oc05U9DROLx0292n7FvJV0+H6mt4VXjOl/DyDc5VQr3ZegexNukv7K4JwJplm1xi0QHTzGjeqUefS/2E4vPBXWQ6zP9Xv3fbxKO7ci8vrjtuYwVGTagJCSxs1ROfBOfdPVKJkvfWv3Fo+dZny60it/WOjJLSAl/XpDE10tJcX63gS1TWdHLhI2/YCC6X+zvBWotuqAWL8/OtJrR5geWdAffCi3f/R9v15JRuzcawzvidgp+0AZ8kF41pOOHp5QTvrN3rlMjUTvaoXffMq2CWrHHoida9wZyPMnIfTl+8llCEKveiX/WWC7EI8FcwqIdt2J8o5mrddAEFK/bWNQccv5SM3GXLUUkfdeTHll1mqlzK3v9Xvkc593/TZudblKh26I9+gP1G3o3JToHsjL3jZ8vTCVMloBi/W7JUks5euUBorN5iMm+zCbisdOdRUbqepk9/ecAkJGVozuXwJBcD2mocm0HjQmD0vTWr30yWz9SIrdFP/1MFAwepHoGEzokzleqNqrQ5L1h7QTbbtAa3F0Sr3UY4TWrdSfCELlrpTyZgJ0YFNtf8r+n/WHHqY+DMQc3tGn977633bQhqXpS5OaNrZ43LQS10Z7kDHngGi3X1pcUaD8KEBw/0J0OKKv86tN9j4VKsSj+vha/OnblCs0Zj6kINTcPBJN5e/ZoQ+lxLJ1zgPIQaPSeF49tDW0omL98wdapAhCrFK/9CTuqdj7grzNp4HsFKu27qSftaJ3fe0+W2qod9+bXWr9xgitXma4g69pqCgW9xwulMy28QS/HevdyeQcEDJ7++j+wwVBeNpdFThXED0gCNq19UumPZvruvkCkL1DrQGPQcDNuXYIl+8DD/hgaFXtBd8AogHCjpL+o6BiHASnn2/yQaOyCel7QNO0/z8aNq7+uGljBYD+O+fJN4BUe2JHSb8LVVV8WhBgvhWdc7exAV57QNOwQRTVEfVLphs/zuV1gTb1+Q4Qslsr6VNUocqjBUG4FkAjm3Vhsfz0wFZN054pFuPjhJKZ1s/M56B+vgTkQD/sGn3J2Qq0XhC0VoDQTNM0F4ejcuBZLtLQA4IgRAFtEzRhnSZqCxqUTJvnZ1f5HhA/O49tC74HGJDgtzHXMA0PMCBpOI+zBt8DDEjw25hrmIYHGJA0nMdZg+8BBiT4bcw1TMMD/wNcnsuMGfVTkQAAAABJRU5ErkJggg==" vertex="1" parent="1">
          <mxGeometry x="1006" y="172.5" width="30" height="30" as="geometry" />
        </mxCell>
        <mxCell id="C-2PJ58ULMP3kAUmGiD7-62" value="jsonDoc" style="rounded=1;whiteSpace=wrap;html=1;" vertex="1" parent="1">
          <mxGeometry x="986" y="232.5" width="70" height="35" as="geometry" />
        </mxCell>
        <mxCell id="C-2PJ58ULMP3kAUmGiD7-65" value="" style="rounded=1;whiteSpace=wrap;html=1;" vertex="1" parent="1">
          <mxGeometry x="1260" y="20" width="230" height="355" as="geometry" />
        </mxCell>
        <mxCell id="C-2PJ58ULMP3kAUmGiD7-66" value="函数类map" style="text;html=1;align=center;verticalAlign=middle;resizable=0;points=[];autosize=1;strokeColor=none;fillColor=none;" vertex="1" parent="1">
          <mxGeometry x="1335" y="-10" width="80" height="30" as="geometry" />
        </mxCell>
        <mxCell id="C-2PJ58ULMP3kAUmGiD7-67" value="注册获取验证码回包的逻辑" style="rounded=0;whiteSpace=wrap;html=1;fillColor=#dae8fc;strokeColor=#6c8ebf;" vertex="1" parent="1">
          <mxGeometry x="1280" y="45" width="190" height="30" as="geometry" />
        </mxCell>
        <mxCell id="C-2PJ58ULMP3kAUmGiD7-68" value="" style="endArrow=classic;html=1;rounded=0;entryX=0.574;entryY=0.844;entryDx=0;entryDy=0;entryPerimeter=0;exitX=1;exitY=0.25;exitDx=0;exitDy=0;" edge="1" parent="1" source="C-2PJ58ULMP3kAUmGiD7-62" target="C-2PJ58ULMP3kAUmGiD7-67">
          <mxGeometry width="50" height="50" relative="1" as="geometry">
            <mxPoint x="990" y="252.5" as="sourcePoint" />
            <mxPoint x="1040" y="202.5" as="targetPoint" />
          </mxGeometry>
        </mxCell>
        <mxCell id="C-2PJ58ULMP3kAUmGiD7-69" value="执行" style="edgeLabel;html=1;align=center;verticalAlign=middle;resizable=0;points=[];" vertex="1" connectable="0" parent="C-2PJ58ULMP3kAUmGiD7-68">
          <mxGeometry x="-0.0518" y="-1" relative="1" as="geometry">
            <mxPoint as="offset" />
          </mxGeometry>
        </mxCell>
        <mxCell id="C-2PJ58ULMP3kAUmGiD7-70" value="" style="endArrow=classic;html=1;rounded=0;entryX=0;entryY=1;entryDx=0;entryDy=0;" edge="1" parent="1" target="C-2PJ58ULMP3kAUmGiD7-57">
          <mxGeometry width="50" height="50" relative="1" as="geometry">
            <mxPoint x="750" y="600" as="sourcePoint" />
            <mxPoint x="800" y="550" as="targetPoint" />
          </mxGeometry>
        </mxCell>
      </root>
    </mxGraphModel>
  </diagram>
</mxfile>
